<mxfile host="app.diagrams.net" agent="Mozilla/5.0 (Windows NT 10.0; Win64; x64; rv:138.0) Gecko/20100101 Firefox/138.0" version="27.0.5">
  <diagram name="Page-1" id="ZEaDoUofSC5zOfhVbg-a">
    <mxGraphModel dx="2678" dy="2445" grid="1" gridSize="10" guides="1" tooltips="1" connect="1" arrows="1" fold="1" page="1" pageScale="1" pageWidth="850" pageHeight="1100" math="0" shadow="0">
      <root>
        <mxCell id="0" />
        <mxCell id="1" parent="0" />
        <mxCell id="33KwMXjwMXi8QC3e7YPG-1" value="PC" style="swimlane;whiteSpace=wrap;html=1;fontSize=30;rounded=1;fillColor=#e1d5e7;strokeColor=#9673a6;" parent="1" vertex="1">
          <mxGeometry x="990" y="-90" width="590" height="720" as="geometry" />
        </mxCell>
        <mxCell id="33KwMXjwMXi8QC3e7YPG-38" value="AUTOWARE" style="rounded=1;whiteSpace=wrap;html=1;fontSize=30;fillColor=#e1d5e7;strokeColor=#9673a6;" parent="33KwMXjwMXi8QC3e7YPG-1" vertex="1">
          <mxGeometry x="161.25" y="102" width="267.5" height="140" as="geometry" />
        </mxCell>
        <mxCell id="33KwMXjwMXi8QC3e7YPG-49" style="edgeStyle=orthogonalEdgeStyle;rounded=0;orthogonalLoop=1;jettySize=auto;html=1;exitX=0.5;exitY=0;exitDx=0;exitDy=0;entryX=0.5;entryY=1;entryDx=0;entryDy=0;endSize=10;startSize=10;strokeWidth=2;fontSize=30;" parent="33KwMXjwMXi8QC3e7YPG-1" source="33KwMXjwMXi8QC3e7YPG-39" target="33KwMXjwMXi8QC3e7YPG-45" edge="1">
          <mxGeometry relative="1" as="geometry" />
        </mxCell>
        <mxCell id="33KwMXjwMXi8QC3e7YPG-39" value="MQTT BROKER" style="rounded=1;whiteSpace=wrap;html=1;fontSize=30;fillColor=#dae8fc;strokeColor=#6c8ebf;" parent="33KwMXjwMXi8QC3e7YPG-1" vertex="1">
          <mxGeometry x="161.25" y="521" width="267.5" height="140" as="geometry" />
        </mxCell>
        <mxCell id="33KwMXjwMXi8QC3e7YPG-48" style="edgeStyle=orthogonalEdgeStyle;rounded=0;orthogonalLoop=1;jettySize=auto;html=1;exitX=0.5;exitY=0;exitDx=0;exitDy=0;entryX=0.5;entryY=1;entryDx=0;entryDy=0;endSize=10;startSize=10;strokeWidth=2;fontSize=30;" parent="33KwMXjwMXi8QC3e7YPG-1" source="33KwMXjwMXi8QC3e7YPG-45" target="33KwMXjwMXi8QC3e7YPG-38" edge="1">
          <mxGeometry relative="1" as="geometry" />
        </mxCell>
        <mxCell id="33KwMXjwMXi8QC3e7YPG-45" value="MQTT2ROS" style="rounded=1;whiteSpace=wrap;html=1;fontSize=30;fillColor=#dae8fc;strokeColor=#6c8ebf;" parent="33KwMXjwMXi8QC3e7YPG-1" vertex="1">
          <mxGeometry x="161.25" y="322" width="267.5" height="113" as="geometry" />
        </mxCell>
        <mxCell id="33KwMXjwMXi8QC3e7YPG-40" style="edgeStyle=orthogonalEdgeStyle;rounded=0;orthogonalLoop=1;jettySize=auto;html=1;exitX=0.5;exitY=0;exitDx=0;exitDy=0;entryX=0.5;entryY=1;entryDx=0;entryDy=0;startArrow=classic;startFill=1;endSize=10;startSize=10;strokeWidth=2;fontSize=30;" parent="1" source="33KwMXjwMXi8QC3e7YPG-2" target="33KwMXjwMXi8QC3e7YPG-27" edge="1">
          <mxGeometry relative="1" as="geometry">
            <Array as="points">
              <mxPoint x="244" y="230" />
              <mxPoint x="-115" y="230" />
            </Array>
          </mxGeometry>
        </mxCell>
        <mxCell id="33KwMXjwMXi8QC3e7YPG-2" value="Ground Station" style="swimlane;whiteSpace=wrap;html=1;fontSize=30;rounded=1;fillColor=#f8cecc;strokeColor=#b85450;" parent="1" vertex="1">
          <mxGeometry x="-321" y="330" width="1130" height="630" as="geometry" />
        </mxCell>
        <mxCell id="33KwMXjwMXi8QC3e7YPG-24" style="edgeStyle=orthogonalEdgeStyle;rounded=0;orthogonalLoop=1;jettySize=auto;html=1;exitX=1;exitY=0.5;exitDx=0;exitDy=0;entryX=0.5;entryY=0;entryDx=0;entryDy=0;startArrow=classic;startFill=1;endSize=10;startSize=10;strokeWidth=2;fontSize=30;" parent="33KwMXjwMXi8QC3e7YPG-2" source="33KwMXjwMXi8QC3e7YPG-5" target="33KwMXjwMXi8QC3e7YPG-17" edge="1">
          <mxGeometry relative="1" as="geometry" />
        </mxCell>
        <mxCell id="33KwMXjwMXi8QC3e7YPG-26" style="edgeStyle=orthogonalEdgeStyle;rounded=0;orthogonalLoop=1;jettySize=auto;html=1;exitX=0;exitY=0.5;exitDx=0;exitDy=0;entryX=0.5;entryY=0;entryDx=0;entryDy=0;startArrow=classic;startFill=1;endSize=10;startSize=10;strokeWidth=2;fontSize=30;" parent="33KwMXjwMXi8QC3e7YPG-2" source="33KwMXjwMXi8QC3e7YPG-5" target="33KwMXjwMXi8QC3e7YPG-7" edge="1">
          <mxGeometry relative="1" as="geometry" />
        </mxCell>
        <mxCell id="33KwMXjwMXi8QC3e7YPG-5" value="Communications" style="swimlane;whiteSpace=wrap;html=1;fontSize=30;rounded=1;" parent="33KwMXjwMXi8QC3e7YPG-2" vertex="1">
          <mxGeometry x="405" y="40" width="320" height="200" as="geometry" />
        </mxCell>
        <mxCell id="33KwMXjwMXi8QC3e7YPG-8" value="&lt;div&gt;Message&lt;/div&gt;&lt;div&gt;Subscriber&lt;/div&gt;" style="rounded=1;whiteSpace=wrap;html=1;fontSize=30;" parent="33KwMXjwMXi8QC3e7YPG-5" vertex="1">
          <mxGeometry x="85" y="35" width="150" height="60" as="geometry" />
        </mxCell>
        <mxCell id="33KwMXjwMXi8QC3e7YPG-9" value="&lt;div&gt;Message&lt;/div&gt;&lt;div&gt;Publisher&lt;/div&gt;" style="rounded=1;whiteSpace=wrap;html=1;fontSize=30;" parent="33KwMXjwMXi8QC3e7YPG-5" vertex="1">
          <mxGeometry x="85" y="120" width="150" height="60" as="geometry" />
        </mxCell>
        <mxCell id="33KwMXjwMXi8QC3e7YPG-7" value="Fleet Manager Core" style="swimlane;whiteSpace=wrap;html=1;fontSize=30;rounded=1;" parent="33KwMXjwMXi8QC3e7YPG-2" vertex="1">
          <mxGeometry x="85" y="325" width="330" height="240" as="geometry" />
        </mxCell>
        <mxCell id="33KwMXjwMXi8QC3e7YPG-13" value="&lt;div&gt;Drone&lt;/div&gt;&lt;div&gt;Manager&lt;/div&gt;" style="rounded=1;whiteSpace=wrap;html=1;fontSize=30;" parent="33KwMXjwMXi8QC3e7YPG-7" vertex="1">
          <mxGeometry x="20" y="43" width="130" height="65" as="geometry" />
        </mxCell>
        <mxCell id="33KwMXjwMXi8QC3e7YPG-14" value="&lt;div&gt;Status&lt;/div&gt;&lt;div&gt;Updater&lt;/div&gt;" style="rounded=1;whiteSpace=wrap;html=1;fontSize=30;" parent="33KwMXjwMXi8QC3e7YPG-7" vertex="1">
          <mxGeometry x="180" y="43" width="130" height="65" as="geometry" />
        </mxCell>
        <mxCell id="33KwMXjwMXi8QC3e7YPG-15" value="&lt;div&gt;Sensor&lt;/div&gt;&lt;div&gt;Manager&lt;/div&gt;" style="rounded=1;whiteSpace=wrap;html=1;fontSize=30;" parent="33KwMXjwMXi8QC3e7YPG-7" vertex="1">
          <mxGeometry x="20" y="127" width="130" height="65" as="geometry" />
        </mxCell>
        <mxCell id="33KwMXjwMXi8QC3e7YPG-16" value="&lt;div&gt;Task&lt;/div&gt;&lt;div&gt;Scheduler&lt;/div&gt;" style="rounded=1;whiteSpace=wrap;html=1;fontSize=30;" parent="33KwMXjwMXi8QC3e7YPG-7" vertex="1">
          <mxGeometry x="180" y="127" width="130" height="65" as="geometry" />
        </mxCell>
        <mxCell id="33KwMXjwMXi8QC3e7YPG-12" value="Mission API" style="rounded=1;whiteSpace=wrap;html=1;fontSize=30;" parent="33KwMXjwMXi8QC3e7YPG-7" vertex="1">
          <mxGeometry x="95" y="200" width="120" height="65" as="geometry" />
        </mxCell>
        <mxCell id="33KwMXjwMXi8QC3e7YPG-25" style="edgeStyle=orthogonalEdgeStyle;rounded=0;orthogonalLoop=1;jettySize=auto;html=1;exitX=0;exitY=0.5;exitDx=0;exitDy=0;entryX=1;entryY=0.5;entryDx=0;entryDy=0;startArrow=classic;startFill=1;endSize=10;startSize=10;strokeWidth=2;fontSize=30;" parent="33KwMXjwMXi8QC3e7YPG-2" source="33KwMXjwMXi8QC3e7YPG-17" target="33KwMXjwMXi8QC3e7YPG-7" edge="1">
          <mxGeometry relative="1" as="geometry" />
        </mxCell>
        <mxCell id="33KwMXjwMXi8QC3e7YPG-17" value="Fleet Manager Core" style="swimlane;whiteSpace=wrap;html=1;fontSize=30;rounded=1;" parent="33KwMXjwMXi8QC3e7YPG-2" vertex="1">
          <mxGeometry x="725" y="330" width="320" height="230" as="geometry" />
        </mxCell>
        <mxCell id="33KwMXjwMXi8QC3e7YPG-10" value="&lt;div&gt;Service&lt;/div&gt;&lt;div&gt;Management&lt;/div&gt;&lt;div&gt;Plugin&lt;/div&gt;" style="rounded=1;whiteSpace=wrap;html=1;fontSize=30;" parent="33KwMXjwMXi8QC3e7YPG-17" vertex="1">
          <mxGeometry x="60" y="60" width="200" height="105" as="geometry" />
        </mxCell>
        <mxCell id="33KwMXjwMXi8QC3e7YPG-23" value="Mission API" style="rounded=1;whiteSpace=wrap;html=1;fontSize=30;" parent="33KwMXjwMXi8QC3e7YPG-17" vertex="1">
          <mxGeometry x="100" y="190" width="120" height="65" as="geometry" />
        </mxCell>
        <mxCell id="33KwMXjwMXi8QC3e7YPG-3" value="UAV Simulated" style="swimlane;whiteSpace=wrap;html=1;fontSize=30;rounded=1;fillColor=#ffe6cc;strokeColor=#d79b00;" parent="1" vertex="1">
          <mxGeometry x="-320" y="-300" width="1170" height="429" as="geometry" />
        </mxCell>
        <mxCell id="33KwMXjwMXi8QC3e7YPG-27" value="Drone Core" style="swimlane;whiteSpace=wrap;html=1;fontSize=30;rounded=1;" parent="33KwMXjwMXi8QC3e7YPG-3" vertex="1">
          <mxGeometry x="80" y="55" width="250" height="280" as="geometry" />
        </mxCell>
        <mxCell id="33KwMXjwMXi8QC3e7YPG-29" value="Command Handler" style="rounded=1;whiteSpace=wrap;html=1;fontSize=30;" parent="33KwMXjwMXi8QC3e7YPG-27" vertex="1">
          <mxGeometry x="54" y="50" width="140" height="65" as="geometry" />
        </mxCell>
        <mxCell id="33KwMXjwMXi8QC3e7YPG-30" value="Status Tracker" style="rounded=1;whiteSpace=wrap;html=1;fontSize=30;" parent="33KwMXjwMXi8QC3e7YPG-27" vertex="1">
          <mxGeometry x="54" y="120" width="140" height="65" as="geometry" />
        </mxCell>
        <mxCell id="33KwMXjwMXi8QC3e7YPG-31" value="Telemetry Filter" style="rounded=1;whiteSpace=wrap;html=1;fontSize=30;" parent="33KwMXjwMXi8QC3e7YPG-27" vertex="1">
          <mxGeometry x="54" y="200" width="140" height="65" as="geometry" />
        </mxCell>
        <mxCell id="33KwMXjwMXi8QC3e7YPG-28" value="Drone Modules" style="swimlane;whiteSpace=wrap;html=1;fontSize=30;rounded=1;" parent="33KwMXjwMXi8QC3e7YPG-3" vertex="1">
          <mxGeometry x="580" y="55" width="580" height="335" as="geometry" />
        </mxCell>
        <mxCell id="33KwMXjwMXi8QC3e7YPG-32" value="Communications" style="swimlane;whiteSpace=wrap;html=1;rounded=1;fontSize=30;" parent="33KwMXjwMXi8QC3e7YPG-28" vertex="1">
          <mxGeometry x="14" y="75" width="273" height="215" as="geometry" />
        </mxCell>
        <mxCell id="33KwMXjwMXi8QC3e7YPG-33" value="WiFi" style="rounded=1;whiteSpace=wrap;html=1;fontSize=30;" parent="33KwMXjwMXi8QC3e7YPG-32" vertex="1">
          <mxGeometry x="54" y="85" width="165" height="65" as="geometry" />
        </mxCell>
        <mxCell id="33KwMXjwMXi8QC3e7YPG-36" value="Data Vision" style="swimlane;whiteSpace=wrap;html=1;rounded=1;fontSize=30;" parent="33KwMXjwMXi8QC3e7YPG-28" vertex="1">
          <mxGeometry x="294" y="75" width="273" height="215" as="geometry" />
        </mxCell>
        <mxCell id="33KwMXjwMXi8QC3e7YPG-37" value="YOLOv8" style="rounded=1;whiteSpace=wrap;html=1;fontSize=30;fillColor=#b1ddf0;strokeColor=#10739e;" parent="33KwMXjwMXi8QC3e7YPG-36" vertex="1">
          <mxGeometry x="46" y="85" width="165" height="65" as="geometry" />
        </mxCell>
        <mxCell id="NLpqun0uHGfVO9it0uOe-1" value="Camera" style="rounded=1;whiteSpace=wrap;html=1;fontSize=30;fillColor=#d5e8d4;strokeColor=#82b366;" parent="33KwMXjwMXi8QC3e7YPG-3" vertex="1">
          <mxGeometry x="378" y="150" width="165" height="65" as="geometry" />
        </mxCell>
        <mxCell id="NLpqun0uHGfVO9it0uOe-2" style="edgeStyle=orthogonalEdgeStyle;rounded=0;orthogonalLoop=1;jettySize=auto;html=1;entryX=0.5;entryY=1;entryDx=0;entryDy=0;startArrow=classic;startFill=1;endSize=10;startSize=10;strokeWidth=2;fontSize=30;exitX=0.5;exitY=1;exitDx=0;exitDy=0;" parent="33KwMXjwMXi8QC3e7YPG-3" source="33KwMXjwMXi8QC3e7YPG-37" target="NLpqun0uHGfVO9it0uOe-1" edge="1">
          <mxGeometry relative="1" as="geometry">
            <Array as="points">
              <mxPoint x="1003" y="410" />
              <mxPoint x="461" y="410" />
            </Array>
          </mxGeometry>
        </mxCell>
        <mxCell id="33KwMXjwMXi8QC3e7YPG-41" value="&lt;font&gt;ITS-G5&lt;/font&gt;" style="text;html=1;align=center;verticalAlign=middle;resizable=0;points=[];autosize=1;strokeColor=none;fillColor=none;fontSize=30;" parent="1" vertex="1">
          <mxGeometry x="-10" y="180" width="120" height="50" as="geometry" />
        </mxCell>
        <mxCell id="33KwMXjwMXi8QC3e7YPG-42" style="edgeStyle=orthogonalEdgeStyle;rounded=0;orthogonalLoop=1;jettySize=auto;html=1;exitX=0.5;exitY=1;exitDx=0;exitDy=0;entryX=0;entryY=0.5;entryDx=0;entryDy=0;endSize=10;startSize=10;strokeWidth=2;fontSize=30;" parent="1" source="33KwMXjwMXi8QC3e7YPG-28" target="33KwMXjwMXi8QC3e7YPG-39" edge="1">
          <mxGeometry relative="1" as="geometry">
            <Array as="points">
              <mxPoint x="550" y="230" />
              <mxPoint x="920" y="230" />
              <mxPoint x="920" y="501" />
            </Array>
          </mxGeometry>
        </mxCell>
        <mxCell id="33KwMXjwMXi8QC3e7YPG-43" value="&lt;font&gt;WiFi&lt;/font&gt;" style="text;html=1;align=center;verticalAlign=middle;resizable=0;points=[];autosize=1;strokeColor=none;fillColor=none;fontSize=30;" parent="1" vertex="1">
          <mxGeometry x="690" y="180" width="80" height="50" as="geometry" />
        </mxCell>
        <mxCell id="dLBkJMeFhAHbQDATNgt3-1" value="" style="shape=image;verticalLabelPosition=bottom;labelBackgroundColor=default;verticalAlign=top;aspect=fixed;imageAspect=0;image=data:image/png,iVBORw0KGgoAAAANSUhEUgAAAGQAAABkCAYAAABw4pVUAAAACXBIWXMAAAsTAAALEwEAmpwYAAAFBElEQVR4nO2cS4gcVRSGv0xgeiIaHxs1s4iKYxaiRlxIMCqKr6ALF4oPFFxpAknwiSAo2bhy6SPjIqArE3VUVARdKEZxNBFGRxSNECTJxgwZM2mVxJmx5MJpKK7V3XXr1ffePh8caJquc/9Tp+o+Tt0uUBRFURRFURRFURRFURRFURRFUZTAWcHwcCkwgafcBywAx4A7iZ+ngUTseTzk95TAw5HfKSPA0VS8J+W7SkhqsktSbXxRwk/V1BGruRg7bCzpq7aEPJQS+ULkCXk/5f8pXxPyakrkXZEn5JmU/7d9TchsSuSayBNyY8r/kbIJqYpVwKmU42XgTOJjtcTWiXNJvvOS/Va2byE+brVi/A6PeckSu4P42GHFOInHPGiJ/Zj4+KTHbNI7JiyxZuW+kngYAY5bMa7DY8zqfM4SfBnxcLkV2x8hVCQ+tEQ/QjxstmL7iAB41hL9GvHwuhXbcwTAzZboA8TDgRCn9WdZCydj6wmfK62YliTWILCru58Co4TLKPCZFdNeAuKBjBrNNHBTYOWU1aL5q4x47icgzNrjy5oKeYkHtrfKB1JNMZ4xCMZgv0j1OkjOzViXhGwfSEzBc72sRw7K8+ckEDspmo326xhyEst88zd0JJoQv0g0IX5xykpIq4SvluXL+Fa6cAXwJDAF/AjMZ5ReEvldVWWPRNqYlzZN209E9qjAiTFgC/CDw4znlRLtTTrultlc8o4MinsLbpVZBu4u0N49Xe64fnZYjo2Ws4F3Sq4LloGdUj3udQW3pJuaLJiMtE2FVNXNywU9yiiLUg1+FLgGuFC6NOTEtytc6LVTY9GYtGXafEyquUtdjvsZWEtEycjqov6RbUPn9Tn+DuDvCpLxF3B7n7aMlpdFW1YXtjaGbirrztgHXOz4x5jZEsmYFR8uu2f2d7lTQnp88D+yxow3ZNupKyPAJuAt4FCXqzh995nfvAncVrBUbjTuzvBt2g92NpWVDO+3zaRY0SUpRWZ7A2UsY9zYV/DOGDSnAd9asRwKbZ2yJaMLcRkzfGNdRhf5MAHxvSX+RcJnpxXTDIFut1zMMbUNgfMz1ikuM7eBYf/Hziz6YuFzKzazoPSeKUu0WYHHwuMhToF/skRvIB42WrGZarX3zFuiTb2oCm4AfiuwSv8VuLYiDRdZvs1bK7xn0RLdKRSW4RzrzQmudlR8lGVVxnTee+yTUQWTJZLRMTNt9TW+Wqla8FU9yuIuZp6LXO1hfLVTRvCEzNJO9DixMzn/t7hSftvNj2ljj2x5bSq+gVBU8IQMkr2u8n8dZ20b5JhePucckzI0CZnK0e3sKqBnVw6/uxuIb2AUFXyixwkzs5l3gdML6DkDeK/P85PjDcQ3MIoKThyPM+Xv7cDXwJ9i5vO2nKXxpnQOnCYCHZd3jPQa+PuNC5qQik5Qq08y0knpdadoQipKyPYcyejYVk1I/pNln/gkZ0K+cfA9XeACKKp/aBPSdvDddtBZVr+3+JSQBQedZfV7i3ZZnlH0CkpyHrfNIek6qDeQkFafomHHZvq8zqNund5wMCXWfK4j0PE+SalzYVg0voGxSXYtHpHPeUkcT9CodEnTMtC35Z0kW3O+6KZoQorGFxxJw11BcF1P0ySaEL9YKDBlrspcyu9Dw54BJsTlAdXQMJ7xitkmbC7k1y3VzRq5WpvovhakLU2GoiiKoiiKoiiKoiiKoiiKQrX8B81Ga9MvINmJAAAAAElFTkSuQmCC;fontSize=30;" vertex="1" parent="1">
          <mxGeometry x="-430" y="-310" width="100" height="100" as="geometry" />
        </mxCell>
        <mxCell id="dLBkJMeFhAHbQDATNgt3-3" value="" style="shape=image;verticalLabelPosition=bottom;labelBackgroundColor=default;verticalAlign=top;aspect=fixed;imageAspect=0;image=data:image/png,iVBORw0KGgoAAAANSUhEUgAABQcAAAJVCAYAAABj3ENEAAAgAElEQVR4XuydjVUcufK3+x/BdQZrIjBEcE0ENhEYIrCJ4DURGCIwRGATwZoIDBGsycBEMK9qLuOdGTTTpY/SR/fDOT57L3SrpadKaunXpdL/DfxAAAIQgAAEIAABCEAAAhCAAAQgAAEIQAACsyTwf7NsNY2GAAQgAAEIQAACEIAABCAAAQhAAAIQgAAEBsRBnAACEIAABCAAAQhAAAIQgAAEIAABCEAAAjMlgDg4U8PTbAhAAAIQgAAEIAABCEAAAhCAAAQgAAEIIA7iAxCAAAQgAAEIQAACEIAABCAAAQhAAAIQmCkBxMGZGp5mQwACEIAABCAAAQhAAAIQgAAEIAABCEAAcRAfgAAEIAABCEAAAhCAAAQgAAEIQAACEIDATAkgDs7U8DQbAhCAAAQgAAEIQAACEIAABCAAAQhAAAKIg/gABCAAAQhAAAIQgAAEIAABCEAAAhCAAARmSgBxcKaGp9kQgAAEIAABCEAAAhCAAAQgAAEIQAACEEAcxAcgAAEIQAACEIAABCAAAQhAAAIQgAAEIDBTAoiDMzU8zYYABCAAAQhAAAIQgAAEIAABCEAAAhCAAOIgPgABCEAAAhCAAAQgAAEIQAACEIAABCAAgZkSQBycqeFpNgQgAAEIQAACEIAABCAAAQhAAAIQgAAEEAfxAQhAAAIQgAAEIAABCEAAAhCAAAQgAAEIzJQA4uBMDU+zIQABCEAAAhCAAAQgAAEIQAACEIAABCCAOIgPQAACEIAABCAAAQhAAAIQgAAEIAABCEBgpgQQB2dqeJoNAQhAAAIQgAAEIAABCEAAAhCAAAQgAAHEQXwAAhCAAAQgAAEIQAACEIAABCAAAQhAAAIzJYA4OFPD02wIQAACEIAABCAAAQhAAAIQgAAEIAABCCAO4gMQgAAEIAABCEAAAhCAAAQgAAEIQAACEJgpAcTBmRqeZkMAAhCAAAQgAAEIQAACEIAABCAAAQhAAHEQH4AABCAAAQhAAAIQgAAEIAABCEAAAhCAwEwJIA7O1PA0GwIQgAAEIAABCEAAAhCAAAQgAAEIQAACiIP4AAQgAAEIQAACEIAABCAAAQhAAAIQgAAEZkoAcXCmhqfZEIAABCAAAQhAAAIQgAAEIAABCEAAAhBAHMQHIAABCEAAAhCAAAQgAAEIQAACEIAABCAwUwKIgzM1PM2GAAQgAAEIQAACEIAABCAAAQhAAAIQgADiID4AAQhAAAIQgAAEIAABCEAAAhCAAAQgAIGZEkAcnKnhaTYEIAABCEAAAhCAAAQgAAEIQAACEIAABBAH8QEIQAACEIAABCAAAQhAAAIQgAAEIAABCMyUAOLgTA1PsyEAAQhAAAIQgAAEIAABCEAAAhCAAAQggDiID0AAAhCAAAQgAAEIQAACEIAABCAAAQhAYKYEEAdnaniaDQEIQAACEIAABCAAAQhAAAIQgAAEIAABxEF8AAIQgAAEIAABCEAAAhCAAAQgAAEIQAACMyWAODhTw9NsCEAAAhCAAAQgAAEIQAACEIAABCAAAQggDuIDEIAABCAAAQhAAAIQgAAEIAABCEAAAhCYKQHEwZkanmZDAAIQgAAEIAABCEAAAhCAAAQgAAEIQABxEB+AAAQgAAEIQAACEIAABCAAAQhAAAIQgMBMCSAOztTwNBsCEIAABCAAAQhAAAIQgAAEIAABCEAAAoiD+AAEIAABCEAAAhCAAAQgAAEIQAACEIAABGZKAHFwpoan2RCAAAQgAAEIQAACEIAABCAAAQhAAAIQQBzEByAAAQhAAAIQgAAEIAABCEAAAhCAAAQgMFMCiIMzNTzNhgAEIAABCEAAAhCAAAQgAAEIQAACEIAA4iA+AAEIQAACEIAABCAAAQhAAAIQgAAEIACBmRJAHJyp4Wk2BCAAAQhAAAIQgAAEIAABCEAAAhCAAAQQB/EBCEAAAhCAAAQgAAEIQAACEIAABCAAAQjMlADi4EwNT7MhAAEIQAACEIAABCAAAQhAAAIQgAAEIIA4iA9AAAIQgAAEIAABCEAAAhCAAAQgAAEIQGCmBBAHZ2p4mg0BCEAAAhCAAAQgAAEIQAACEIAABCAAAcRBfAACEIAABCAAAQhAAAIQgAAEIAABCEAAAjMlgDg4U8PTbAhAAAIQgAAEIAABCEAAAhCAAAQgAAEIIA7iAxCAAAQgAAEIQAACEIAABCAAAQhAAAIQmCkBxMGZGp5mQwACEIAABCAAAQhAAAIQgAAEIAABCEAAcRAfgAAEIAABCEAAAhCAAAQgAAEIQAACEIDATAkgDs7U8DQbAhCAAAQgAAEIQAACEIAABCAAAQhAAAKIg/gABCAAAQhAAAIQgAAEIAABCEAAAhCAAARmSgBxcKaGp9kQgAAEIAABCEAAAhCAAAQgAAEIQAACEEAcxAcgAAEIQAACEIAABCAAAQhAAAIQgAAEIDBTAoiDMzU8zYYABCAAAQhAAAIQgAAEIAABCEAAAhCAAOIgPgABCEAAAhCAAAQgAAEIQAACEIAABCAAgZkSQBycqeFpNgQgAAEIQAACEIAABCAAAQhAAAIQgAAEEAfxAQhAAAIQgAAEIAABCEAAAhCAAAQgAAEIzJQA4uBMDU+zIQABCEAAAhCAAAQgAAEIQAACEIAABCCAOIgPQAACEIAABCAAAQhAAAIQgAAEIAABCEBgpgQQB2dqeJoNAQhAAAIQgAAEIAABCEAAAhCAAAQgAAHEQXwAAhCAAAQgAAEIQAACEIAABCAAAQhAAAIzJYA4OFPD02wIQAACEIAABCAAAQhAAAIQgAAEIAABCCAO4gMQgAAEIAABCEAAAhCAAAQgAAEIQAACEJgpAcTBmRqeZkMAAhCAAAQgAAEIQAACEIAABCAAAQhAAHEQH4AABCAAAQhAAAIQgAAEIAABCEAAAhCAwEwJIA7O1PA0GwIQgAAEIAABCEAAAhCAAAQgAAEIQAACiIP4AAQgAAEIQAACEIAABCAAAQhAAAIQgAAEZkoAcXCmhqfZEIAABCAAAQhAAAIQgAAEIAABCEAAAhBAHMQHIAABCEAAAhCAAAQgAAEIQAACEIAABCAwUwKIgzM1PM2GAAQgAAEIQAACEIAABCAAAQhAAAIQgADiID4AAQhAAAIQgAAEIAABCEAAAhCAAAQgAIGZEkAcnKnhaTYEIAABCEAAAhCAAAQgAAEIQAACEIAABBAH8QEIQAACEIAABCAAAQhAAAIQgAAEIAABCMyUAOLgTA1PsyEAAQhAAAIQgAAEIAABCEAAAhCAAAQggDiID0AAAhCAAAQgAAEIQAACEIAABCAAAQhAYKYEEAdnaniaDQEIQAACEIAABCAAAQhAAAIQgAAEIAABxEF8AAIQgAAEIAABCEAAAhCAAAQgAAEIQAACMyWAODhTw9NsCEAAAhCAAAQgAAEIQAACEIAABCAAAQggDuIDEIAABCAAAQhAAAIQgAAEIAABCEAAAhCYKQHEwZkanmZDAAIQgAAEIAABCEAAAhCAAAQgAAEIQABxEB+AAAQgAAEIQAACEIAABCAAAQhAAAIQgMBMCSAOztTwNBsCMQS+ffu2+P3793B2dsbYEQOQeyAAAQhAAAIQgAAEIAABCEAAAo0RYIHfmEGoDgRaJPDPP/8sTk9Ph7u7u2X1/vrrr+H6+no4Pj5mDGnRYNQJAhCAAAQgAAEIQAACEIAABCCgJMDCXgmKyyAwVwIfP35cXF1deZv/3//+dykSHhwcMJbM1UFoNwQgAAEIQAACEIAABCAAAQh0TYAFfdfmo/IQsCPw9evXxadPn4anp6fRhzgBcXACIuPJKCkugAAEIAABCEAAAhCAAAQgAAEItEWAxXxb9qA2EKhO4O+//16Kgg8PD0F1+c9//jNcXl6SjzCIGhdDAAIQgAAEIAABCEAAAhCAAATqEkAcrMufp0OgGQKSV/Dz58/Dzc1NUp3evHmzFAnJR5iEkZshAAEIQAACEIAABCAAAQhAAAJFCCAOFsHMQyDQNoH/9//+30IEPc0WYm1L3r17txQJyUeoJcZ1EIAABCAAAQhAAAIQgAAEIACB8gQQB8sz54kQaIbAt2/flluIHx8fzerkhMfh4uKCscaMMAVDAAIQgAAEIAABCEAAAhCAAATiCbBgj2fHnRDolsDPnz+XouDd3V2RNpCPsAhmHgIBCEAAAhCAAAQgAAEIQAACEAgmgDgYjIwbINA3AXey8MKdLFylEeQjrIKdh0IAAhCAAAQgAAEIQAACEIAABHYSQBzEOSAwEwJfvnxZHjiSM69gLDryEcaS4z4IQAACEIAABCAAAQhAAAIQgEBeAoiDeXlSGgSaI/D3338vTk9PTfMKxjaafISx5LgPAhCAAAQgAAEIQAACEIAABCCQhwDiYB6OlAKB5gj8888/y7yCt7e3zdVtvULkI2zaPFQOAhCAAAQgAAEIQAACEIAABCZOAHFw4gamefMk4CLyFu6E4K4a/9///neQbc/Hx8eMS11ZjspCAAIQgAAEIAABCEAAAhCAQM8EWIT3bD3qDoEtAl+/fl3mFXx8fOyWzYcPH5Yi4cHBAeNTt1ak4hCAAAQgAAEIQAACEIAABCDQCwEW371YinpCYA8BySsogtrd3d0kOMlWY9kS7aIfGaMmYVEaAQEIQAACEIAABCAAAQhAAAKtEmDh3aplqBcElARcpN3i5uZGeXVfl/3111/LKMKzszPGqr5MR20hAAEIQAACEIAABCAAAQhAoBMCLLg7MRTVhMA2AckreHl5OTw9PZnBkQi+sfJFwLPexkw+QjMTUzAEIAABCEAAAhCAAAQgAAEIzJwA4uDMHYDm90dAthCfnp6aCnKrbb1CZ+xgkzdv3gwiUso24IeHB1Og5CM0xUvhEIAABCAAAQhAAAIQgAAEIDBDAoiDMzQ6Te6TwD///LMUBa3zCooA57Yp/588zx0K8gKWiIHbIuCXL1+G8/Pz/5MDUUQkHIs2TLEA+QhT6HEvBCAAAQhAAAIQgAAEIAABCEBgkwDiIB4BgQ4IfPz4cXF1dWVaU9m6KxGAR0dHy3Hh3bt3i9vb241nuq3Mw9u3b4fj4+ON3z9vP/4znsiW57GIw9TGyHZmqe/JyQnjWCpM7ocABCAAAQhAAAIQgAAEIACB2RJgUT1b09PwHgiUiMTzHfohW5e3BcDn3ILLMcN3CMoq4nDFVSIPJYpwW2DMzX1b1MxdPuVBAAIQgAAEIAABCEAAAhCAAASmTABxcMrWpW3dEhBxrkQOP4kEdBF+L8YBJwQutg8ZcULlxqnBLlpwsb192NVbogo3yiuRI/FZsFxuh+7W6FQcAhCAAAQgAAEIQAACEIAABCBQgQAL6QrQeSQEdhGQaLvPnz+LyGUKyW0ZXm7JdTkFX4wBLn/gwuUP3Hi+ROe5XIcb1/que85H6B1X5HppG/kITU1L4RCAAAQgAAEIQAACEIAABCAAgSACiINBuLgYAnYEJE+fCHaW4tnqZOHt6L71VvkiAn/+/PknF+H6ta68xfbhJNsRhtvESuRPJB+hnZ9SMgQgAAEIQAACEIAABCAAAQhMiwDi4LTsSWs6JPDt27flFuLtbbw5myIHhkjUnpwovK9cTS7B9ft9uQm3DyfxPa/UycvkI8zpRZQFAQhAAAIQgAAEIAABCEAAAlMkgDg4RavSpi4IuGi8pSjotuua1tdF6g3upOPRvi71cScVb9RFI/T5TjXWPpN8hKamp3AIQAACEIAABCAAAQhAAAIQgMAogVHBYLQELoAABIIJlNhaGxo1565fbAuVLk/gaLShRAEeHh6+2A69ayuyDxb5CINdiBsgAAEIQAACEIAABCAAAQhAAAJZCCAOZsFIIRDQESghgsXk23N5AhdnZ2cbjZBy3FZn1Rgh+RLdqccb9/sOMRmjVEI0jeEzVm/+DgEIQAACEIAABCAAAQhAAAIQ6JWAauHfa+OoNwRaISDbZ2UL8fbhHTnrJ1uA5RlOpAvu104wW2znPHR1HvYdXLJdd18ZY4eT+NpfMh/h9fW198TmnHahLAhAAAIQgAAEIAABCEAAAhCAQMsEgkWElhtD3SDQGgERukSwu729Na2aO0hkeeDIwcFBcJ/2Rf25PIJS56CyYg8n2QWmxEEt8mxtfkRTA1I4BCAAAQhAAAIQgAAEIAABCECgEoGgxX+lOvJYCHRJwCe65W7ImzdvhsvLy6AIv/U6iHjpBMUX1XK/jxIafYeTOA5R0YyrSglHaePT01NufH/K057mbFYBCoYABCAAAQhAAAIQgAAEIAABCFQigDhYCTyPnS4Byd8nUXzb23RztljELBHMXJ7ApD6cW8zLLTauM3PRkYubm5ucGF+UJfkIZatxyHZq0wpROAQgAAEIQAACEIAABCAAAQhAwJhAkrBgXDeKh0BXBNzpvMstxNsn/uZuRK5tsL5twCGHkOxqV67DSXzll2Ish6mQjzC351IeBCAAAQhAAAIQgAAEIAABCLRIAHGwRatQp+4IlIhqyy1Y5TpAxGcsX9kuh+BwcnKSZcwhH2F3XYQKQwACEIAABCAAAQhAAAIQgECjBLIs1BttG9WCgDmBEvnwLLa6fvnyZXF+fr7BR8RHF/WYZUwQ8c4JgRvl54hK3DZoCf7kIzTvRjwAAhCAAAQgAAEIQAACEIAABCoSyCIEVKw/j4ZAFQKyJff09NQ8r6BsU764uMjeT53gtdg+4MNt2R2Ojo6yPcuJjYvtLdaph5PsMnaJyE0LkbaK8/JQCEAAAhCAAAQgAAEIQAACEIDAGoFsQgBUITAHAnLghoiC1nkFndg1uMM3TPqnT0izeJ7l4SQ+XyMf4Rx6IG2EAAQgAAEIQAACEIAABCAAgdwETMSH3JWkPAi0QMB30EbuesnWXjnp2Oq0XBHQXHTgRrVl26yLIjQZCywPJ9nFvlQ+QqsoyNw+RXkQgAAEIAABCEAAAhCAAAQgAIF9BEwEAZBDYEoEvn79ujyFeHsbbs42ypZVEQXPzs5M+6Rvq6/LPzi4/INmz/UdTuK2ZZsJoCu7lMpHeHl5aW63nL5GWRCAAAQgAAEIQAACEIAABCAAgXUCZoIAmCHQOwHJKyii4MPDg2lTSkWgicjpxMeNtlgcErINq9ZzpR6ytVlEV7dF29SGb968GUQktIr4NK08hUMAAhCAAAQgAAEIQAACEIDArAkgDs7a/DTeR6CUoPTu3buloHRwcFCkH9aK4BPGJQ8n8dlUhF4RCa1zRZa2KT0YAhCAAAQgAAEIQAACEIAABCCQSqCIKJFaSe6HQCkCJbai1jj11pf7T4Ss29vbImPArlyH9/f3xcRR8SGJYhSR8PHx0dSlSkWDmjaCwiEAAQhAAAIQgAAEIAABCEBgFgSKCAOzIEkjuyZQ4hALOfhDhCnL/H4+I5Q+NXiXI3z8+HFxdXW18eeSAuX6g0uIwGJv8hF2PSxQeQhAAAIQgAAEIAABCEAAArMggDg4CzPTyF0ERDg7PT0132764cMHyXtXpb85AW7hIgQ3ENSKbHOC2WL7YJcSh5PsEk3JR8jYAAEIQAACEIAABCAAAQhAAAJzJ1BFrJg7dNrfBgFfJFvumrlce8vosaOjoyp9TXLtuUMyNppV4hCSXRxrHk6yq07kI8zt9ZQHAQhAAAIQgAAEIAABCEAAAj0RqCJY9ASIuk6PwJcvX5Z557Yj2HK2VAQ4EQVPTk6q9jHfISROoBvcqcXV6uU7nMTZpPh26217l8hHKFuN5QTsi4uLavxz+jllQQACEIAABCAAAQhAAAIQgED/BFig9m9DWqAkIBFiIsw8PDwo7wi/rCXxR0RQl99woxESyehO7K3a733RjMLNibVV67UC5Tu8JdwT9t8h4rEI1DVF2txtojwIQAACEIAABCAAAQhAAAIQ6JNAE4vxPtFR614ISF5BEQW38+7lrr8criHRggcHB030K19+P3dqcLUtzuu8XQ7GhcvBuGGCmnkZt32hlM+IWCsiodv63YTP5O4TlAcBCEAAAhCAAAQgAAEIQAAC7RNgQdq+jahhAoESp9K+efNmKQq2JPC0Lr6JSVs6nGSXi5WINpVnizAqImErwnJCl+NWCEAAAhCAAAQgAAEIQAACEOiMAOJgZwajujoCpfLHiSjY2tZQFx24cAegbIBqadvuqmK+bc8itLpt382NS+JPEn1qmaeypS3pul7GVRCAAAQgAAEIQAACEIAABCAwBQLNLcKnAJU21CMgwpiIOC6vnmkl3EnHw9XVVZP9p9UDP3wGcWLgYjsHZAuHk+xyHvIRmnYrCocABCAAAQhAAAIQgAAEIACBCgSaFDcqcOCREyDg20qbu1mSI+76+rrZ7Z8S4eYiGTeaLYdfPD4+NtnXWz+cxOc/5CPM3asoDwIQgAAEIAABCEAAAhCAAARqEmhSMKgJhGf3R0C2p0q+NsstnyKwyRbik5OTpvuMq+fCCYEbRnQCXFP5ELc9rIf8iL5eQT7C/sYKagwBCEAAAhCAAAQgAAEIQAACLwk0LXRgMAjsIyDizOnpqUTFmYHqKQ+cb8urnKDsTmluup9LJN7h4eELcbeVk5XHnIt8hGOE+DsEIAABCEAAAhCAAAQgAAEItEygadGgZXDUrR4BEZNEFLTOKygnyN7c3HTRR4SJO+n2hVHc75vdAr1eWZ+wKVu4nY274C9tKZWPsIcI1nqjA0+GAAQgAAEIQAACEIAABCAAgVAC3Sy8QxvG9dMkUEKAEVFKtikfHx930z9chODCRQhuGN2xGi4uLrppg29LtIvKa+406H09q5RwLT4qIqE7lbob+05zRKJVEIAABCAAAQhAAAIQgAAE+ifAwrJ/G86iBaW2borg4g706Kpf+A71aPkQkl0O2+PhJPvaYr3lXZ7dU3TrLAYqGgkBCEAAAhCAAAQgAAEIQKBDAl2JIB3ypcqJBEQwkig+6y3EvUXZrWOdQsTdqj2+CMiPHz8OV1dXXY5VJQ7L6SkvZuJwwO0QgAAEIAABCEAAAhCAAAQgYECgywW3AQeKbIyAbM8UUdDl/DOtmRzYIdGCLl9fl31BxKfz8/MNRr3l6luvfO+Hk+xyVidwLpzAaerLvZyobQqBwiEAAQhAAAIQgAAEIAABCEAgmECXgkhwK7mhKwKSV1AEu6enJ7N6i5ByfX3dVV5BHwwXNbbY5tTLKb+7jDuFw0l8bSMfoVl3pmAIQAACEIAABCAAAQhAAAIQSCCAOJgAj1vzEvj27dvi06dPw+PjY96C10qTLZgSkeii7br3fZdvbrEdWTmVHHS+rdLOP4aTk5Pu7SZb5clHaNbFKRgCEIAABCAAAQhAAAIQgAAEAgl0v9AObC+XN0igVETVVIQzMaGLDly4k2o3rCnCp4sinESfFqHYCYEb7evxkJV93Y18hA0ORlQJAhCAAAQgAAEIQAACEIDADAlMQkiYod0m0+QSudgkB59sU3Zi2mT83bVpsX1IixObJhERuXJuXxt7PjhmV6ct0Qemso1+MgMfDYEABCAAAQhAAAIQgAAEINAQgcmIJQ0xpSoKAl+/fl1uIbbOKyhbiM/Ozibl58LOtWmD8tSi6qRxElHqDop54U3u990eILOra0gkqPQH61O5RSiXXJu9HsCjGFq4BAIQgAAEIAABCEAAAhCAAAQCCUxKNAlsO5dXICD51kQEeXh4MHu6bK+VZ1xcXEzSv335+BzX7g9X8TnEVA8n2eX8JfJuyrNdtOLgTk+eZP8wG1goGAIQgAAEIAABCEAAAhCAwEQJsDicqGFba5ZEgYlgd3t7a1q1d+/eLbcQTzUyyieWSZsd18n25SkfTrKrM5Q4sXtKh/OYDioUDgEIQAACEIAABCAAAQhAYOIEJisoTNxuXTWvhNDx5s2bpSh4fHw8WZ+e0zbbdQefw+Ekuzq070Tq3J2ffIS5iVIeBCAAAQhAAAIQgAAEIACBvghMVkjpywzTrG2JLZJzin5yEYKL7cjLKR7Q4esNczmcxNd28hFOc3ykVRCAAAQgAAEIQAACEIAABFohgDjYiiUmVI9SYsac8qZJrkYXFbnhJVM8hGRXNxCfcqdNb/xZhOH7+/vJbiHfZlFCbJdnzqlfTWjYpSkQgAAEIAABCEAAAhCAAASiCSAORqPjRh+BEtsg53jiqi/vnju1eHInMe/rVU60WrhDNDYumXq+RR+PEtv05xSRy0gOAQhAAAIQgAAEIAABCEBg7gQQB+fuAZna/+XLl8Xnz5+Hp6enTCW+LEYi5SSv4MnJyaz8Vtien59vABGB9O7ublYcBIATrRbbPjbVk5rHOlIJIX4OuTzHOPN3CEAAAhCAAAQgAAEIQAACUycwO3Fh6gYt3T7Z7np6ejo8Pj6aPVqimOSk44uLi1n6q08Qc9tsB7fNdnY8XLTk4uzsbMPX5rS9eruTldrCP/VTwM0GLwoexEflw9GPHz9MPx6VRi3C+fv377O8l7aFfvf/h5ubmy7Hd4nwvr6+/mNr+ZAlH/Ws31clIqpz+BgfXHJQpAwIQAACEIAABCwIdDn5tABBmWEE5ORcEey2D8gIK2X8alkkycLy4OBglr7qiw7reeE4bvHxK+Z8OMkuOiKaSj+xFOnl2XM5AGfcC7lCQ0DeE4eHh5MSBbfbnZqj05cyQp4hItLDw0NX7z1X54Wr8wvXkA98Ig5bCYS+lBMa/6x5zVwj3msy59kQgAAEIAABCOwn0NXEE2O2QUC+0LsoPtPKSLSBiB3uEI7Z+uiuQzjcttrZMhGn43CS3V2vRPSMLPQlEshFcM7aD00HwIkU3qNoE4k+qi+MpQboSYz3RXWvs7RKhSECtPt4GGm2erfNMV9uPdo8GQIQgAAEIAABDYGoCa2mYK6ZHgGZ/Eu0oGVeQYSHf/3GFyHn8g8OLv/g7PutT3SYe0TlynNksSzCutuWaDoIsT3OFO8kCveNYZNo2FYjEqLAFkje3OEAACAASURBVPt49JQyQWNrNzZl3wUgp7i7PMS9utXs3+W9Go56QwACEIAABKZIgInJFK2auU2SV1DEBncARuaSN4vrKUrCFIQrnNx644Q5nGQ/o1L9lnyE47461ys0gtEU2FiJg89supinaWydwGmnm5TYyWDoo13Y1rD9FA0BCEAAAhCAQEMEmJg0ZIwWqzK27SlHnWW7kSQwn2teQR9DhK9xz/Kd4txjnq7xlqZdQT7CNH7cHU9AIxjFl97OnQmi197IQcTBcRv3Kg7KLom5pwgZty5XQAACEIAABCBQkgDiYEnaHT2rRO4y2TIlouCc8wr6XMK32CE/kb/z+BLgs/Xaz6pEnyYtQEeDfIGqknNwFDLi4Cii/Rf0Kg6SBiPR8NwOAQhAAAIQgEB2AoiD2ZH2XaDk75G8gpannoqAINuUyZ330ld2JVe3yNXUt6f+r/ayddaJyxtNISJjt2XJRzgFr++nDZxWPGorxMFRRNMTB+UddX9/z26JRNtzOwQgAAEIQAACeQkgDubl2W1psog7PT01zyvI1/L9LuLbhkcuxv3MfFvf8bP9zErlIxQ7yIcAUgZ0+2pIrricLi4+8OPHD9PDrJIrGliApDB4//79cHFxkTKPQhwM5L59eU+Rg+Izh4eHjImJNud2CEAAAhCAAARsCKRMam1qRKnFCZTY+iV5BS8vL4ejoyN8boeFfVFwPZ1WWdxx1x5IjsY4+qVOIJdo5EQRJa6B3DVpAr4xc7vB8u5xh2m1+t5BHEz0UI04yAe2RMjcDgEIQAACEIDALAi0OmGeBfzajSwhDIi4JVEjZ2dn+NqIwR2rxfZ2bmcj2Ck6iu9wksZFAUWryl2iWWCn1oaxIJUg928TQBxsxyc0h88kHNyys6GasQtxsB0/oSYQgAAEIAABCLRLAMGmXduY1UwWVBLJ8/DwYPYMKZgJuR6vb4GDuKXnJ1cirobx2r5aUgvIuHB7e5tW0Mjd4tfywYCDiEwxz6JwxMF2zIw42I4tqAkEIAABCEAAAhCIIYA4GEOt03tKHUYgJ+vKFmLyjOkdxbct1uXqYhu2HiGHkwSw2ndpqY8H5CPMZLAZF4M42I7xEQfbsQU1gQAEIAABCEAAAjEEEAdjqHV4j0SmiWD39PRkVntJti3PICIoDDEHaoTx2ne1E6YX25FvLqfmcHV1xVgXiLlE2gE5tZN8hIGG4fI/BBAH23EGxMF2bEFNIAABCEAAAhCAQAwBFswx1Dq659u3b8utgtu57HI2QRb4sk3w/PwcfwoE61vcCk8n4sIykKVcLtGxchrktghOFGYEzOdbNDm94kv/353kI0wlOM/7EQfbsTviYDu2oCYQgAAEIAABCEAghgACRAy1Du5xYshSFHSnNJrWlqisNLy+BZU7XAOhNQEr+RsT4O24tWQ+Qk41z2+/qZaIONiOZREH27EFNYEABCAAAQhAAAIxBBAHY6g1fo8T7BZuG6VpLeVQARbxaYhl26Y7xXmjEImgclGe9Ms0tBxOkshv1+0l8xHe3NzQD4zsOJViEQfbsSTiYDu2oCYQgAAEIAABCEAghgCLrxhqjd7jIs4Wsr3XMq+giFciCp6cnOA7iX7gO4TELXbJ2ZjIVW5nu3YGiHuKIB+hLV9K1xFAHNRxKnEV4mAJyjwDAhCAAAQgAAEI2BFA4LFjW6xkWSCdnp6a5xXk4IB8JvVtfZVTnt1hGvTJTJh9i1XHfbi4uIBxJsYlopT5IJHJWBMsBnGwHaMiDrZjC2oCAQhAAAIQgAAEYgiwSI6h1sg9pfKAudN0lweOHBwc4C8ZbC92cyxflOR+D+MMfFdFwDkjzD1FCWf5OGGd35RUBmXs2dNTEAfbsRbiYDu2oCYQgAAEIAABCEAghgBiTwy1Bu4pcYLomzdvlluIj4+P8ZOMNieiLSPMkaI4nKQc6xIRzNIa+VhBPsJydm35SYiD7VgHcbAdW1ATCEAAAhCAAAQgEEMA0SeGWsV7JNeXRPG5QyvMauFy4S1FQXdYBv6RmbJvMcshJJkhbxXn+C62+8u3b9/Im2mEvUTuUxmjSHNgZMCOikUcbMdYiIPt2IKaQAACEIAABCAAgRgCiD8x1CrcI4sgEQWtt+6Rk83WuD6hygm+CLGG2J0QuHAH6Gw8AUHWEPhz0eQjtGc89ycgDrbjAYiD7diCmkAAAhCAAAQgAIEYAoiDMdQK3+O20S3cNjrTp0o+r+vra3LeGVJmi6sh3JGi2cpdhz35COtwn8tTEQfbsTTiYDu2oCYQgAAEIAABCEAghgDiYAy1QveImCTbe5+ensyeKBFUIgqSV9AM8Z+C3VbIxbYtf/78ORwdHdEPjfFzOIkx4JHiS+UjdNGKw9XVFf2prrmLPR1xsBjq0QchDo4i4gIIQAACEIAABCDQNAEWUQ2ap8RCmpxdZQ3vi/7kYIWyNvBFbr579264vb1lHCxkilL5CCUFw/n5OXYtZNdaj0EcrEX+5XMRB9uxBTWBAAQgAAEIQAACMQRYPMVQM7qn1BY8RCkjA+4o1reAFXHWRRHS/8qaYvBFbzr7EDlb2A4lUiUQFV3YqBUehzhYAfqORyIOtmMLagIBCEAAAhCAAARiCCBOxFAzuKdE8n7JKyjblNnGamDAPUX6Fk0ugorIprJmWD5NTvt2p3BvPJnDSSoYwj3SbalfyInD1ocskU+1jn1LPBVxsARl3TMQB3WcuAoCEIAABCAAAQi0SgBxsLJlRKyQBbJ1XkHZZudEEexd2N6IUYWBKx7H4SQKSAUvkdOkZQx8fHw0fSr5CE3xVikccbAKdu9DEQfbsQU1gQAEIAABCEAAAjEEEItiqGW4RxY1siB+eHjIUNruIlyeteHi4gI7m1LeXTjbWCuB3/NYiVhz0bMbV8g27/v7e07rrmiuEgcwiZ3JR1jRyJkfjTiYGWhCcYiDCfC4FQIQgAAEIAABCDRAANGosBEkr6AsTm9ubkyfLActyBbig4MDbGxKeq8wu3DC7MYFHIBRyRhbj/Vt48c2bdiGfIRt2KGHWsxBHJQPfD38XF9fj0b/WuR39R00tc1LUgu8ffs2O8bXr1+zIyM7VQqEAAQgAAEIQKAWAYSjguRLRMaQhL+gQfc8SkRgJ8y+uML9HsG2DRNxOEkjdvBVg3yEDRunoarNQRxsCHdyVWqJg8kV31OARCPLh1jStlhSpmwIQAACEIAABEoQQBwsQLlETi22yxUwZMAjyGsXAKvSpeSDrAQ+4LElxk6pDvkIA4zS0KWIgw0ZQ1GVKYqDq2bz4U/hAFwCAQhAAAIQgEDTBBAHDc1TKvqFha2hESOK9i1YORE3AmSBW968ebPYzvvJSdIFwAc+okTUtasS78NAu9S+HHGwtgXCnj9lcZB5WJgvcDUEIAABCEAAAu0RYDFkaBNNLpyUx0seHdnO4g5XwI4pIDPf64TAxfbJqy5KjW1HmTnnKM4nLkgUrjs9nD6VA3DmMozzEWLzzPayLg5x0Jpw3vKnLA7KfOzu7o4xJK/LUBoEIAABCEAAAgUJMJExhG0lDkoUmoiCJycn2M/QfjFF+2zOoiGGZLl7fIKT+50cGkT/KmcG9ZNEEJJDndxCXH2P8kLsrQTVymWIg61YQlcPxEEdJ66CAAQgAAEIQAACNQiwGDKknlsclIimT58+De4EXOxmaLeUop2NFi7qbKMIt72c6M4UqAXu9dnNYiFboCmzeYTkjBSRcDtKNwEA42oCvBq3Ig7WoB7/TIsxNfc8K7Z1bCuOJcd9EIAABCAAAQi0QoDFkKElck5aJZJJFsLuBFxsZmizlKKJQEuhV/del2dwcX5+vlEJl49wcPkI6W91TTP69Iz5CLH1KO22LkAcbMseY7WZsjjIR8Ax6/N3CEAAAhCAAARaJ8BiyNBCOcRBEShkC/Hx8TG2MrRVatHkrkslWP9+Diepb4PYGriTQpdRhG4reGwRch9jbAq9CvciDlaAnvDIqYqD5BROcApuhQAEIAABCECgGQIshgxNkSIOyhZiEQXPzs6wkaGNchXt8goutnOgceptLrplykHgLcPZ8imJ+QgZay2NY1D2HMRBN48wIJe/yOvr69Et/rXEQcn7+/bt2+yNfvXq1fD+/Xt2dGQnS4EQgAAEIAABCNQgwGLIkHqsOEjuGkOjGBQtuc+ciLtRshwa43Kh0b8MeFsW6dsaTn+0JG5TduTYS3+1MYdZqXMQBx28LvzS94Fs2/C1xEERWMnVbNYNKRgCEIAABCAAgYkQ6GLS2SvrmAXqt2/fOIW4M4NzmEVnBttTXdmeenh4OHCozCRsughsBe/DQGC1L0ccrG2Bf5+PONiOLagJBCAAAQhAAAIQiCHAYiiGmvKeGHHQ4su6srpcFkHAZ+N3794Nt7e39K0Ini3c4rOpbEtz28axaQsG0tcBcVDPqssrEQfbMRviYDu2oCYQgAAEIAABCEAghgCL3RhqynsQB5WgOr1Moszc6dEvau9+Tw6iTm26qrbbFr5w28I3WkHS+e6MijjYncnCKow4GMbL8mrEQUu6lA0BCEAAAhCAAATsCSAOGjJGHDSE20DRvsUQuY0aMEyGKnA4SQaI9YtAHKxvA9MaIA6a4g0qHHEwCBcXQwACEIAABCAAgeYIIA4amgRx0BBu5aJ9i1IOIalslMyPd9vDF257+EapHE6SGbJtcYiDtnyrl444WN0EfyqAONiOLagJBCAAAQhAAAIQiCGAOBhDTXkP4qASVIeXse20Q6MFVnnX4SRsGw8EWe9yxMF67Is8GXGwCGbVQxAHVZi4CAIQgAAEIAABCDRLAHHQ0DSIg4ZwKxbNgRUV4Rd+NLYuDDzv4xAH8/JsrjTEwXZMgjjYji2oCQQgAAEIQAACEIghgDgYQ015D+KgElRnl/3nP/9ZPD09bdT658+fw9HREf2pM1tqquuLEv327dtwcnKCvTUA612DOFiPfZEnIw4Wwax6COKgChMXQQACEIAABCAAgWYJsLg1NA3ioCHcSkV/+PBhcXNzs/F097vB/Y6+VMkm1o91QuDCCYEbjyG/pDX1LOUjDmbB2G4hiIPt2AZxsB1bUBMIQAACEIAABCAQQwBBI4aa8h7EQSWoTi7jBNtODGVQTU6mNoBqXyTioD3jqk9AHKyKf+PhiIPt2IKaQAACEIAABCAAgRgCiIMx1JT3IA4qQXVymW/x8+XLl+H8/Jx+1IkNY6sph5McHBy8uJ3DSWKJFrkPcbAI5noPQRysx377yYiD7diCmkAAAhCAAAQgAIEYAogaMdSU9yAOKkF1cNnXr18XZ2dnGzVla2kHhstYRQ4nyQizTFGIg2U4V3sK4mA19C8ejDjYji2oCQQgAAEIQAACEIghgDgYQ015D+KgElQHl/kOIXEL0+H4+Jg+1IH9clWRw0lykSxSDuJgEcz1HoI4WI/99pMRB9uxBTWBAAQgAAEIQAACMQQQNmKoKe9BHFSCavwynx3fvXs33N7e0n8at13u6hFBmpuoaXmIg6Z46xeOOFjfBqsaIA62YwtqAgEIQAACEIAABGIIIG7EUFPegzioBNXwZeSaa9g4larG4SSVwIc/FnEwnFlXdyAOtmMuxMF2bEFNIAABCEAAAhCAQAwBxMEYasp7EAeVoBq+DCGoYeNUqtrPnz8XR0dHG093286H+/v7wR1awphayS6exyIOtmMLk5ogDppgjSoUcTAKGzdBAAIQgAAEIACBZgiwkDU0BeKgIdwCRfsWnhxCUgB8B4/4+PHj4urqaqOmbDVvznCIg82ZJG+FEAfz8kwpDXEwhR73QgACEIAABCAAgfoEEAcNbYA4aAi3QNG+wydczrnBnVpMvynAv/VHcEhN6xYaEAebN1FaBREH0/jlvBtxMCdNyoIABCAAAQhAAALlCSByGDJHHDSEa1y0z3Zu8TPc3d3RZ4zZ91I8h5M0bynEweZNlFZBxME0fjnvRhzMSZOyIAABCEAAAhCAQHkCCB2GzBEHDeEaF+2LCnO55gaXa44+Y8y+p+LJSdm0tRAHmzZPeuUQB9MZ5ioBcTAXScqBAAQgAAEIQAACdQggdBhyRxw0hGtY9IcPHxY3NzcbT3C/G9zv6C+G3HssetfhJE9PT/hKfYMiDta3gWkNEAdN8QYV3rI4KO/v09PToPZYXPzq1Ss+MFqApUwIQAACEIAABLIQYAGbBaO/EMRBQ7hGRfsWm3ISLWKPEfAJFIuY3KwREQebNU2eiiEO5uGYo5SWxcEc7ctVhswnLi8vyV2cCyjlQAACEIAABCCQjQDiYDaULwtCHDSEa1S0b4Hz5cuX4fz8nL5ixHwKxXI4SZNWRBxs0iz5KoU4mI9lakmIg2EEv337NpycnDCvCMPG1RCAAAQgAAEIGBJgYmIIF3HQEK5B0RwwYQB1JkU6AXnhBOSN1r5582Z4eHhgjK3nA4iD9dgXeTLiYBHMqocgDqow/bmI90MYL66GAAQgAAEIQMCeAAtXQ8aIg4ZwDYom+ssA6oyKdIu9hRMDN1pM1GlVB0AcrIrf/uGIg/aMtU9AHNSS2riOOXgUNm6CAAQgAAEIQMCCABMTC6rPZSIOGsLNXLTPVu/evRtub2/pI5lZT7U48lU2Z1nEweZMkrdCiIN5eaaUhjgYRY/5RRQ2boIABCAAAQhAwIIAExMLqoiDhlTzF/3PP/8sDg4ONgqWpOH39/eD+z19JD/yyZbI4SRNmRZxsClz5K+M77Tw7ae0/JHnr7/+Wjw+Pu4E4wS34e7urot3kOO8cB/TxoycvS0agXisUjX+zkFnNajzTAhAAAIQgAAE9hHIPlED978EiBzswxt8EQ/OdsPFxQX9ow8TNlVLtqc3Yw7EwWZMYVeRMYHN5ZJt9mRYX67SdVI9HVoxJtJ9/PhxuLq6Mnmn+sZcO4/LU7L7kDTc3NyY8MhTQ0qBAAQgAAEIQGBuBJiYGFoccdAQbqaifQsat9gcXDQHfSMT47kV4+v3PUUATcheiIMTMuaupjgBbeFOffX+uQcBxhdtLI3poe7b0H2Hesk11odv7Hpuq+5vzaPVdlMvCEAAAhCAAATaJoAAYmgfxEFDuJmK9kWd9BStkQkDxWQm4POrliOYMje/leIQB1uxhHE9JDXE5eXlMhWE/Lx69Wp4//59sxGD2zhE4Ly+vh5+//69rPunT5+G4+PjLudn8sFN2vLr169lM09PT4vYQbaYiw+snmvsctHFi1+6k+27tG10o7kRAhCAAAQgAIEuCDBBMTQT4qAh3AxFE+GVASJFeAlwOEkTjoE42IQZqAQEIAABCEAAAhCAAAQg0DoBxEFDCyEOGsLNULQvT5GLPhiOjo7oFxn4zr0IX4J+y7xbc+ftaT/iIE4BAQhAAAIQgAAEIAABCEBAQQARRAEp9hLEwVhy9vf58jwh3Nhzn9MTZKvj4eHh8PT0tNFsBOhiXoA4WAw1D4IABCAAAQhAAAIQgAAEeiaAOGhoPcRBQ7gJRbPlMwEetwYRYOt6EK7cFyMO5iZKeRCAAAQgAAEIQAACEIDAJAkgDhqaFXHQEG5C0e7k2MXd3d1GCV++fCFJeAJTbt1NgMNJqnkH4mA19DwYAhCAAAQgAAEIQAACEOiJAOKgobUQBw3hRhbtToxdnJ2dbdz95s2b4eHhgb4QyZTb9hPwRao6wXB4fHzE52ydB3HQli+lQwACEIAABCAAAQhAAAITIcDi1NCQiIOGcCOL9h1C4sSb4fj4mL4QyZTbxgn4olXd+DBcXFzgd+P4Yq9AHIwlx30QgAAEIAABCEAAAhCAwKwIsDA1NDfioCHciKJ99nAnyg63t7f0gwie3KInIIeTHBwcvLjB/X5wv8f/9ChDrkQcDKHFtRCAAAQgAAEIQAACEIDAbAmwKDU0PeKgIdzAon3ijIsiHO7v7xFnAllyeRwBDieJ45ZwF+JgAjxuhQAEIAABCEAAAhCAAATmQwBx0NDWiIOGcAOLZltnIDAuNyHgO5zk27dvw8nJCWNxfuKIg/mZUiIEIAABCEAAAhCAAAQgMEECLEgNjYo4aAg3oGgOhAiAxaWmBJwQuHBC4MYzOJzEDDnioBlaCoYABCAAAQhAAAIQgAAEpkQAcdDQmoiDhnADiiZaKwAWl5oTIIrVHPHqAYiDxVDzIAhAAAIQgAAEIAABCECgZwKIg4bWQxw0hKssmjxvSlBcVowAh5MUQ404WAw1D4IABCAAAQhAAAIQgAAEeiaAOGhoPcRBQ7jKot2hI4unp6eNq3/+/DkcHR3h+0qGXJafwMePHxdXV1cbBXNydnbOiIPZkVIgBCAAAQhAAAIQgAAEIDBFAggkhlZFHDSEqyj6w4cPi5ubm40rnSgzOFEGv1fw4xJbAj7h2uXHHI6Pj/HPPOgRB/NwpBQIQAACEIAABCAAAQhAYOIEWIQaGhhx0BDuSNG+Q0icGDO4KEJ8vp5ZePIaga9fvy7Ozs42mHA4SVYXQRzMipPCIAABCEAAAhCAAAQgAIGpEkAoMbQs4qAh3JGifYc+fPnyZTg/P8fn65mFJ28R4HASU5dAHDTFS+EQgAAEIAABCEAAAhCAwFQIIJQYWhJx0BDunqJ9EVlv3rwZHh4e8Pc6JuGpOwi4/JcLl/9y468S4Xp/fz8cHBzgr2megziYxo+7IQABCEAAAhCAAAQgAIGZEGDxaWhoxEFDuHuKJpdbHe48NY4Ah5PEcVPchTiogMQlEIAABCAAAQhAAAIQgAAEEAcNfQBx0BDujqJ9zDkFtrwdeGIYAQTtMF7KqxEHlaC4DAIQgAAEIAABCEAAAhCYNwHEQUP7Iw4awvUU/c8//yzcVsyNv7BFs6wNeFocAZcPc+HyYW7czFb4OJZrdyEOJiOkAAhAAAIQgAAEIAABCEBgDgQQBw2tjDhoCNdTNIc7lOXN0/IScGLgwuXF3CiUQ3SSGCMOJuHjZghAAAIQgAAEIAABCEBgLgQQBw0tjThoCHer6L///ntxfHy88du//vpreHx8xMfLmYEnJRDw+bBEvj49PeHDcVwRB+O4cRcEIAABCEAAAhCAAAQgMDMCLDoNDY44aAh3q2gnBC6cELjx22/fvg0nJyf4eDkz8KREAh8+fFjc3NxslOJ+N7jf4cfhbBEHw5lxBwQgAAEIQAACEIAABCAwQwIsOA2NjjhoCHetaB9nt8V4uLu7w7/LmICnZCTA4STZYCIOZkNJQRCAAAQgAAEIQAACEIDAlAkgnhhaF3HQEO5a0T4x5efPn8PR0RH+XcYEPCUjAQ4nyQYTcTAbSgqCAAQgAAEIQAACEIAABKZMAPHE0LqIg4Zwn4v2bcP8+PHjcHV1hW/b4+cJRgR8h5N8/fp1ODs7w6/1zBEH9ay4EgIQgAAEIAABCEAAAhCYMQEWmobGRxw0hOuK5gAHW76UXo8Avp2FPeJgFowUAgEIQAACEIAABCAAAQhMnQDioKGFEQcN4bqiXV7BhcsruPEQtyVzOD8/x69t0VN6AQLv3r1b3N7ebjyJqNgg8IiDQbi4GAIQgAAEIAABCEAAAhCYKwFEFEPLIw7awXVbLBdui+XGA9xWzOHh4QGftsNOyQUJ/PPPP4vDw8Ph6elp46nk01QbAXFQjYoLIQABCEAAAhCAAAQgAIE5E0BIMbQ+4qAdXE50tWNLye0Q4CTuJFsgDibh42YIQAACEIAABCAAAQhAYC4EEAcNLY04aAPXx9VtwRzcFkz82QY5pVYk8Ndffy0eHx83asDhJCqDIA6qMHERBCAAAQhAAAIQgAAEIDB3Aogphh6AOJgfrmy1PDg42CjYRREO9/f3g/s9/pwfOSVWJsDhJNEGQByMRseNEIAABCAAAQhAAAIQgMCcCCCmGFobcTA/XN8hJI7zcHFxgS/nx02JjRDgcJIoQyAORmHr+ybJR3t9fT2sDqty74zh9PR0cDlqu3lHuIOHFj9+/JAcuktj9NgGqfe3b98Wl5eXy493kjtV8gJLHtWbm5skW7iDxxbfv3/v21G3av/q1avh/fv3pn7q8tUuxBa/fv1a2uT379/LWmwf7BYLVvxUfqQtYufXr18v/3t0dJRkb0195MPx58+fB+k3EmnvIu4H8b2TkxPzZ2vqt96n5YP227dvh0+fPg3Hx8dN1O/Dhw/LPrWynbUvapjJNVMYz6UdqzErV1/T8JM+IH1QfsTfpC/Kv1qBFNu21LSh9DXCTFjJWFKLU+k28zwIbBNo4qU0VbMgDua1rC+CSgZyNxHEj/OiprTGCPgiZqWK7vdMYHbbCnGwMT+2ro4scJ3w5H2M+1uyKGVdfynfCWiLlSi4/byePoTJYvj8/NyLLOXwsH18StjH+hm5T6QXgVZEH/m3fbiVdVtW5YsYJmKT/LMQ66SN8gHA1z43b6wqwO06WGzFpoUUIbv6VEo/zeFb+8ZzEaKd0NbF3H9fO3JwCi1D7Cr9xY3PxfiJOH51dRVa1WrXsyOtGnoe3ACBYgNDA20tXgXEwbzIfbnX3KTQZLKZt+aUBoF0AhxOEswQcTAYWb83aN63LSzE9xGWyAoX4ThmhC7mbb5Dw9Yb5sTD4MWpks8Yv+b/nuOjj4izEjm3na+2duNl0S0Rc7l2e+z6cLZqZ20RybfbZdsGOewda9exPlXro8q+jwurtvbwsUSidV3kbKx5TO/L3Rd3VXasj5o2MqHwWr6fUGVuhUAWAl1MMrO0tEIhmsXKdrVqf+WsgEn1SIQRFSYumjgBBPIgAyMOBuHq++IxMUpa13qkuSbCpIc5gi/Kf9u7Yg4R0/Dp24v/V/sUEVvYS1RQa6Lgtl1EmBDxMnW7vyYiyQk0RbY2b7dRKwzVFCE04qVrV/G1omY8Fx9y0aLF6xYyxsSsA0PKz3GtvBclFYfVFvcxATpHGyzKaH2+YNFmyoSAEGh6UO3dRDEvhR4m/jXs4pso1Jrw1Wg/z4SAEJDtU25b1gYMJjA7cNxw2QAAIABJREFUfQNxcCbdRhNlskLRcrS5ZqHewxxBIw7GRHRp+EzB5WMjojRCWWt8YkTi9Tb48vFutzEmSjUHJ609Kotcmvdk0bViiJiUIqTnsPFYGTHrwLEyrf5uxbInBh62RX3fyraUC4EQAjh9CK3Aa2MGxB4m/oEYki/3RQvkzsuTXEkKgEAhAhzKowatWfSsF8b7UI22rQt9EbW7apgqRli2XCN+9TBHQBxM85IYcbDnqMqU3HaaeXZK+SmWDMmPWaNfa0S4GsJlCLdattX6hcY/tWWVuM5CIOyNwYozH95LeBzPaJEAiyFDq8QMiDUmCIYIkov2LTJqTFaSG0IBEMhEgMNJ1CARB9Wo+r1QI0Rtt65mjq99pBEH9/thSIRovx49DKHzwJ6FwZWdYkUeXzS9z/al+3xonrUaH7w1UZelP6Zot2Kv27jlXUQx68DaY1fu6PoeGYgNam73r+0DPH/eBBAHDe0fMyCGTgoNq99E0b7FUq0tIk0AoRIQcATIwalyA8RBFaa+L9IscLdbWGMhrqGMOLif0tjJrxrGrV8TKpLFzDNbZRC7GNfkpys9bwwVsitFKY2+Iy0iyfb5X4zQHes3JfpBj/0zdwBGrwx+/PhRJVdpCb/kGRDYRwBx0NA/YgZExMF/DeLb8hA6cTY0L0VDoCoB31ZKxo8Nk4wufLYMyPuwqkeHPzw0Omf1hNyLn/Ca++9AHBwnKZFFctrt3d3d+MWdXREapRUTZdU6kpioJY2gFJPjMoVVzEeLktGN2ohLx6Doe1Ej9G7bpdXxXOoZsw5M8btc9+YUXHtjIOPw58+fEQZzORPldEeg6KDfHZ3ECscMiCzu/4XumyTAJ9EpuX0yBHzieaXog1aZIg62aplM9Yp5x64eXToiRtNkxEENpX+vkS3lYXeMX+1O7By9SOYhuX9iTgrV+Mt2PeUd8f79++H169fD4eHh8s8xz94uV4T6X79+LX8tETfyv+W/oacmx7zDGhW6gn2zZHSjRlANFatT+4QmB+KuZ5RkF9JOzTsqJseopg6r8VH64ffv34eHhwfNbX+uySVW12QQ1GAuhgAElgQQBw0dQTMgbj8e8et/RHzsSk9UDF2DoiGQhQCHk+zFGLo4432YxSvLFRJyEMl2rUpHEmmoaMSeHuYImjyQLfJ/tpFm3Kg+VmgYr/tcrWgYiW68vLwcbm5uNF1geU2kcD9qt8hy1fVeXRggVm6UXbJPaCL0SgtuIQeRbBslRlQONmzEDZp1oJU4uF1dEfBPT0/VUde50m+0xCDChNwCgdkRqD7BmTJxzYCIOPjSA3xbxWTbwP39/XBwcIDPTrnT0LYgAr5tZfSVPwhHF4tbsBlbgryv7sWxC/D1WreWyB5xsK5P9SQOaiK/pD3yPri+vh5OTk6qjm8iZkrE4tPT06iRY4QezTbeUh+YtbbZAcLcTtqxM1fk2KjB3QU5tsi3+OFEsw4sJQ6u7KCp02rscP012R81zyvNQOOTXAOBuRJI7vRzBadpt2ZARBx8SZJoKI13cQ0E/kfAfd1dXF1dbeAotQhq3AaIg40bKKV6GjFgrPyceZXGnqX5O+KghpL5NZpxo4W5s6aeIro0kztLBKC3b9+qBMLQegdsSTW3nSYqb5cXl4hu9M0ZtutTOr93oqC6rH6L8x7NOrCGMKZ9f+YQXFtlYP4m4QEQ6JSA+UuyUy5Zqq0ZEBEHNwn4tsrEfEXOYkAKgUAnBMjP6TWUavG8difvw078PfYgku3mtZbIHnGwCQfUjBtVxwqtEFZ6W6jGetrt0JFbGkdtF3PgiaZdq2tSI+BKfLDQpGOo4DujttPYoWS0o6Y+mnVgDXFQ+w7NUbdWGWjsxzUQmCOBqhOcqQPXDIiIg5sEfJMW68nc1P2Q9k2fAIeTIA5O38v/baHm3fr8UWkUS4lIndFKPF+AOKglZXqdRqSoOnfWRFm1/FFV4+cxkWuaaChr8U0TlbfPe60/WGjFy5IimxMiF+fn53s7tXY8zyFm5RxdNO+qWnXWjCM5ojFbZpDT1pQFgakQqDrBmQrEXe3QDIiIg/sXfCUTNE/dH2nftAmwHf+FfTWL/PWbeB920kU02/ZkO5QkXx87LbUlEUUjmuTY5mVtZk10WMPvds24UXWsaDTyS+1W2px3rsAgzhqRyVp8SzlUYwXQso9rxMvSY6LGn+UjzufPn7saz8WemnVgLXFQE4EcI9JvDwQtM1APWlwIgRkRCHrxzohLlqZqBkTEwX8J+BZ8oXlnshiOQiDQIQHfgtx6IdQ4Js0iH3GwcSNuV0+zoFktbrXvYMvFeAhexMEQWmbXasaN2nPn0Tp2MHcabUNov9RulbTajaJ9/pjnRm6pHit2+XeNEGf5fM+aZ3F8fLy37qt5jEb8lYJaigbXvINqiYPaKFKHNGm8a5mBqtNwEQRmRiCpw8+MVXBzNQMi4uD/CPjC20tOUIKNyw0QaJCArx9Zb6NqEMOqSqOLz6268z5s2JirqmkEtFW+LO1ivZU+omlbqGBSw6REDtpR17Dt4aOQxtdj8t5pIves5pYa8ep5m+ZeB7GK3NOOhyWFZc3W1nV7aaLGW4pK1qwDa4mDz06omSclzY06YGA3YFMyBDokkNThO2xv0SprBkTEwWEg4qmoWyY9THL6/Pr1a7i+vm7mBMSkBk3wZg4n+WNUzaR33QN4HzbeH7SL2/V8WZo8ZNLskjm2dmHWCCaIg+ZOqhk3qo0Vmi25LYkju6ylmR/HiCYagc5KfBsba+S5379/l7nTqBNbjEc12exp8Gh/W2ehERNbGc+lHlZ+PupA+gtG+buiksa7DhjoaXElBGZAIKnDz4BPUhM1AyLi4DD4FkQxX4yTjMXNewnIpFLyvTw9Pf25LmbiDmZ7Ar4FQI68MfY1z/4EzaQXcTA7drsCNfmythOoayKtnhdxw8XFRdU5EeKgne8ElKwZN6r5iWZeaRUZF8Bw9FKNUBVzGIL2A4JRdNxe31lFKGu29lrMgWtGVfocQuMD20K3ditsK31A019rzqU1kZiIg6PDGRdAYFIEqk1wJkVxR2M0L4W5i4O+/FEzFTKa7BIy0Zak/nd3d976yZdwiSJ0OWMYSxqyoG8RYLHYaKjJvqpoFvmIg40bcb16moWML5+YZjFuFU0UghdxMISW2bWacaPa+04zr6wpNmitohHtYyMgNf09t3ikiehcjU2ajxyxbd/FXyuaWuVj9NVLYydf/kCNyNnK1vrW+2uJd07rDLRjFtdBYC4Eqk1w5gBYMyDOXRxkC2S7PSHEf2O+8Lfb8v5rxlb9pQ01i3zEwU7cPeQgku0maSJU5J6SC2Mf9hILtRLmthR+CtRfM25Umztr3stzFwc14lvujwFj213XxSpN/3j282x+phk/SwpqGjF1V300bRF+LRxM0np/LfHOaZ1BgXcKj4BAVwSyvXi6anWhymoGxDmLgz4+iEyFnHPPY2Ti+unTp+Hh4SGoMjKRk63H5+fnjCtB5Gwu5nCSMHEwd6SGjVXnW6pmETMiioyKPrV9QNNGcg6a94FRP3E1qPaO08wr5y4Oaree5szrNxbVvH3o0dj1ucWtsXyI8rySBzOl1kfDr4VdSK331xLvnNYZmL9ReAAEOiNQbYLTGaeo6moGxLmKg74tDiIu3d/fDwcHB/hllMel36T54j72FFlgX15ecmDJGCjjv0sfOzw83MgTKY80yrVk3Jqo4jWL/D8F1xaGolo4k5tyLPbHIntWKHMKBqHmKbFQC61TzPWayKiG+5tm3Kg2R9HMK+cuDorParas5kq1oRmftqPYNONR5o/lo35dKnJau8V531xFO1et/TGl9f6qEVlTP4a0ziDmHcc9EJgygWoTnClDXbVNu5VpnUXtF1kpu/gWQT1MaEvxKf0cWcxJbsHHx8dsj8ae2VBGF+SblDW8KI9u544bRxdD6/fNiEtuzubl5VhIaxbw0pDcuchC4CAOhtAyu1YzblSbO09loW0tIGvEo1yRZZpnbQssKdtqQz1fuw03VQTS1kvjw2O20QqMJaMhfe3XtLXyXNl8vOuAgdZ1uQ4CsyBQbYIzB7qayc82h8oviSJm8XHJnf+lSEMm8hDN9o7YpnJgSSy5fPf5IihayMWTr4U7S9JMev/cjDhYwCKRj9BEN2h8uvVE9oiDkQ6S9zbNuFFt7jyVhbZmfpwyJmvEN3GbHJHCY1GKeyIAR30tRzSfZo6XOUpxb48c4yU3a8ZzTbueK0J/3W2RUR9MFY2nMmblfc1QGgTaJVBtwGwXSb6aaSY/cxQHfRODHBOgfJabR0nyNVlyCz49PZk3uPbXW/MGNvyAGR9Oopn0Ig427LvPi8TF2dnZ3lpqE+lrI2g0C1MLbIiDFlSDy9SMG9XmzlNZaGvmxynioFg910eFfR6kiWDbtX1ZI27liGQuwUHbyzSirXY815Ql9cq1fVzbxvXrWu6v2mh6xMEYy3MPBPolUG2C0y8yfc01k5+5iYMz3+aodx7DK2UyK1uI7+7uDJ/ysmiZ8EkuQrfQZ9wpSn4YfIuQHIuOws0IfZxmkY84GEq18PWaaL8QX9YslMe2tFkhQBy0IhtUrmbcqPYOa1lsCKGsmR+nioM50hGMtUmTPmhXdKLmY0XqrhqtgJYqAI1xWv1dI4iGfEzWRCGmMtS2zXddy/1V43+pfVCYtMwgxbbcC4GpEqg2wZkq0PV2aSY/cxIHOSChvtfLS1oEuhLRgrtaK5ON6+trDp4p6A4z7XuaRT7iYEE/DH2UNrIhZGugMj9YlYN7EAdDPcTkes24UW3uPJWFtmZ+nCpMlBDGxvrsvg8NmqhD8fCUQ8RKCKTaXqhtb0judU1/kPrV2p2kqV+tdFIaoTbHdvOWGWh9l+sgMCcC1SY4c4CsmfzMSRz0TVJCIj7m4DNWbZRFtkQLPjw8WD0iuNxaE6Lgik7khhlG7WoW+YiDDfu3ZmEbKiBoF6gh0Su5EI4JDfKckIVzrnqFlqOZ+4TaLbQOCddrxo1qc+epLLQL+sioPRPTCOwtf2xLqyYyeqyMfb6uiZROKT+kn2k+zERG+Y3aOIfIFdLW1bWt9lftezCHb7TKIMae3AOBORCoNsGZA1zN5Gcu4uCM855Vd3XNhKxWJTmwpCz5meX7HF0wrNNvWKwo6yQNPU2zsI1Z2GtEOG3eq5y4NPVCHMxJ3FuWZtyoNneeykJbMz/OMSZbRkdptmWORf1ptiXHpjnQMJYeEBJ5ndL7NON5jBil+YhUsp3rjFrtr5p+Ie0Y81+NP2gYyMc4CWDI/fPq1avh6Oio2niduz2UB4ESBOgwhpS1L+atF8lwcXExObv4vo7GTAIMzTW5osX/5GX7+PjYfNuIIC1jIt82q8gv9WUqnPYUzSL/zxNyLETTqsvd6wQ0i+ZYAU+zqJe6lH5HIQ420Qc040a1OZpmod1DVL5mfpxjTNb09dhxZEyU0rxbtRFcrmcE+5zmw3Cs8BjaUzV2eC4zuJ0aX5Kya/SLFvvrmN+ubKvxX40faBhoyom9Rtrx/ft3RMJYgNw3OwLBg/DsCCU0WPvCmro46JsUlJqQJJiv61u1L/+WGikTdMlFeHJywrhkaBifAFFj0mzYxFXRmkU+4mABQ8Q8QpNoPmXrr6b8XIsjbfsRB7WkTK/TjBvV3lGahXYP47lmfpxDHHz2lFGbxuSkG4uE03701IxFMRHSmnJLfQDRjG3W43msCJwy2rTUX6XPff78WX0YYa5xRMMghbHm3hq219SLayDQIoFqE5wWYeSuk2bys/3MXINx7raklOebQPWwNSqlzbXulcgwiRa0OnBEJruHh4fDp0+fzJ7BgSW23rMrUqHU1iLb1m2UProgXL8640K0YBOn+SjtuzNly5N2wVLyXaVZQJesT6x3aezXcH/TjBvV5s4av+1hHlnSRzRbKEOFKU39tX1VE+EXmjPP4jCn2PFAGx2p5eWrhzYyMUZkjW233Kfpr1ZbauX59/f3y38/fvwI2kWUU0zTMEhhrL23lBCurQ/XQaBVAtUmOK0CyVkvzeRh6uKgb9ITOsnJaZOpliWTLxEF7+7uTJookZ4S1beeu8MyOlEmJiJATnGLvYmBAgudyeEkmkX+H3INixWB1u3/cs3Ykhp9rl2wlnxfIQ424buacaPa3Fmz0EYc3PQjixQFY4JeiLiiEfJCytOKUqUio8dYSX1z1GUsklOeU/o9r+mvTYx6W5XIOYa0wiD0A0CLdqFOEChBoNoEp0Tjaj9j7uKgb/ElExz5inVwcIDvZXJQmfjKVgGLaMExkc46r6EIAJeXl8Px8TH+kslfVsXM4HASzSIfcTCzX2UqbtR2OSJANCKktKdUVC3iYCbvSStm1Pdc8dXeR5qFds6FfRrK3Xdr5se5hBzth4CQyLWxLbuhQoRG2ArZ+qw5BVm77TnVBzRty+Gz2vE8JeI8lIWmv4aWaX19DqF2vY6tMCj5oc/aRpQPAUsC1SY4lo1qpWzN5Ge7rjlekK20f0a5zaogl6/NEi348PBg8vyQ7b3WL/9Sk1gTkI0WOoPDSTSLfMTBxvzTIspnVxO17+hS72XEwSacUTNuVJs7a961pfw1xVqavpdLHJR65hTLNGJjiJAn9dMIW9p5kKZ+8swSIpl2u2+ODzCaCMxn1sPNzU2RPqzpryn9KPe9EhAgW5BznvDbCoMexsXc9qQ8CMQQKDI4xlRsCvdoJj9TFQdnIDxUdVHLl61MDiQS8fz8PGh8sN7aLF8zJYqQA0vyud7EBXzNIh9xMJ87ZSlpLCIn9+JO87zckRS7QCEOZnGh1EI040bQuzG1Quv3a979PSyCNfPjnOKg5qODtp9rynI2C/IR35x5229y1k9bVqrvakTZnBFdmjE0dIt2CgNNf00pP/e9OSLyPevahUsRlLuqweWVEMODK8UNEGiQQNDLq8H6N10lzeRnquLgDLYsVvE96228OSZpltucBbrUUURCtqanu6DvS/uEtv5rFvmIg+lulK0E7Tsz5yRfudAfLBZN2+A0C9uQrY/ZDBNYkMaOOYWfwOqNXa4ZN6rNnTViA+LgSxPnjKYb66ex8yjN9lvN2KcR5LRRiGOdZd/ftZF8oVGW+56pjVQsMZ5LPTX9NYVxrntl3id5xS0+vrfAoIcxMZctKQcCqQSqTXBSK97D/ZoJ8hTFwZkcdlDcBTXbTmIrZRGVpzkhMLa+sdGNsc+b8n0TPjRIs8hHHGzIuTVjhkXEi2ZRXkLMGhMdxFSIg+YOqxk3qs2dNQvtHhbCmvlx7j6niRJWstvrI7HCk2b8U564OurDOQW5XT1SM2etNZ5bPNfHQdNfzUe0kQf4DhzMWScNA7HH69evcz52Wdbh4eHw/v178pZnJ0uBUyZQbYIzZairtmkmP1MTB+XrrAzG24djaL52zsEnYtoo200kt6DFgSNSH8svyNaRjtaTmhh79XiPTxzpQYQYYT26QFq/P/dCtEc/qFlnbWSPcnEc1BTNIlYKzJEXa1/FEAeDzGZ1sWbcqDZ31iy0lQKXFT9VuZr5ce4xWXNq7tgp6MrItCj/0JSdo36lttVqPrpY+Kqmj4iTlpjjaOui6jSZLxJBTlIInZ2dRfmrtjoaBhZ+oK0f10EAApsETAeEucPWTH6mJg76FlmW4tOUfUwWy58+fRpub29NmlnyJGDN5CClkfhYCr1Btkwu3ARxo5BSX9bTar73bs0i/08BuReihu2aZNEBY0T2eYt2+5v1OIM42IRra8aN7D6obbmmn/Sw0NbMj3OPydp+vu8jwNiHhDHxTmHnJP/TRB+GnqSsqPOLSzRCp9xk8cFF+6GpBAdNf43hm3KPbHuXaDprUXBVRw2DHsasFObcC4GeCFSb4PQEKbaumsnPlMRBX3tLfaGMtVGr91nn7avxIpaJuYidd3d3JthFzJKcKcfHx4xrEYQneDiJZpGFOBjhKxa3aLb8WS7mNHm6rN9niIMWnhVcpmbcqPaOmcpCWzM/zi0Oiidoxpl90clj0XCpkc2aMWBk2/Ko/5bYUqwZTy3su+rtGpH0+VrTvqzpr7Fban///j08PDyoBjh5d8oOpBrzYw2DGmsSFTgugsAMCZgOijPkudFkzeRnSuKgbzKQOlGamw9ZC2gyGRMBreZhHtbCZ2wy8Ln52nZ7J3g4yegiaZ2B5UJl7r411n7NSZ1ShuU2MG2kS2w+sTEG8neNMGDJQFNHzTWauU/D/U0zblSbO09loV3LR1K2FmvqnBoJpzkgadccRzuGuT5s6r/aCE3LsVT7TrEWpaz7q0aEfRbFh8fHR1O773o3WDPQvJO4BgIQ0BOoMlDoq9f3lZqJxFTEQd+kJMP2ir4dILD2mhdoYJF/Lm/tAA/rLdOttTfWbqXv8y2cLKO1jNunWeT/qULDYoUxpvrFa6I8SmxzH4sKElKW7zXEwfq+6GqgGTeqzZ018wRrwSOHlTTzY4sxWSsa+QS0MWExx9ig3RLrq9/YlmexW4mPp5p6WEdhPwtiCyeI7XVX6/eKdX/V9KMVgFrjgjWDHOMRZUAAAv8SqDbBmYMRQgbt2oN3qj0meqBBKhbV/daHdshk8PLysmq04C4QMlGXrcZjEzgVSM9FsriQth8dHTHWKSFOqC9rFvmIg0q/sLpMuxiWvvz27VuraizL/f79u2qbllX0HuKgqXm1hWvGjWrvk6kstDXzYwtxUJxA8xHAF9U2tiU5V05STTSYb2twbLu0HSPgutE+JEKq5L2z/Pnx44cqjY3lNusS/VUjxj77/XB/f198LVCCgaUfUTYE5kag2gRnDqA1k59tDrW+7KTYw/c1tcTXyZQ6t3Lv2JfolHrKl1nZQnxyctJ8P7fkIAx77Fcptk+517etKUdEREqdIu8dXaCsl2u1EI2s+2xu0ywcWoNhFU2LONiEpTXjRrV3qqa/9PC+08yPrcZkjZiyPYfVbJV112T5EKmZD22PQSkRkTl7nWZbdM7n5SjLcr1Sqr9qhGFhZdnWXbYoxSCHL1AGBCBgnHdi7oA1k5/exUFf1IeIUjW+TvXkbzKRk+TAT09PJtXO9QXbpHI7CpXJtzDRJlgOrRsHluiJTSR/qGaR/weK1UJUT32eV45F4zRMJbtAhDjYhLU140Z222tbPpWFtmZ+bDUmxwhpY6JXzu2pGiFy+3kxgqfW50Ku63U8T80VWVsYG/PP9fpZRb7XZhDip1wLAQjsJlBtgjMHo2gmP72LgxM84dTcNTX5tWIrMQUBzPrAEquon1ibtXjfRE4e1yzyEQcrOmBAAv2KtfQ/2uKwLcTBJsysGTeqzZ0RB7P5yKid17cWj231zT2v0Ihs65GKmustxqwt0WnhTsPNZqCSBVl9UC/ZX8d8dMUzp5CtsVFJBpr6cA0EILCfQLUJzhwMM3Vx0Pf1tfRLpyc/sha9ethKpLWXRKRKFOHd3Z32lqDrJLpVchGenZ0xBu4g54tEyL0ACjJa+MWji7/1Iq2iVMKrPZ87NGJYqzQs3nUaHpb5sXKx1sx9Gu5vmnGj2ntjKgvt2j6i+Ui79b7b6xe5+6Vma/FqzqeJNJS+bRUdtxo3NNGLucaY3OVYHZBSsr9q+tSKW8n1QkkGuf2C8iAwRwLVJjhzgB0yUNcYsFNt4PtSmXuClFrHFu63FrqmfOiG9fZrYSd5GQ8ODhgLPZ2l88NJNIv8P61uWKxoYRjLXgftQSTZH5yxwNzvu6ksojRb3GrkvlKaXjNuVHtfTMVHNPNjyzFZE7W8EozGrrUQljRbn1e5gDVCYqG8wZq+o+yG5S/zHUKTWovS/VUr0JZM/1SaQarNuB8CcydQbYIzB/Cayc82h5Jfc1Js4BvsLSdyKXWtea/mpRhbP3m5f/78eTg/P598P9ZMfmM5yn299LuUNsbc2/nhJEELFcavGA+Jv8e6T8fXTH9nboFL877oYazqvB2acaPaO1fD1mqLpL5njF/ZiIA8amv5ACAfEG9vb3c2yiqiXnPIhEQDyinuj4+Pe6FbbynW2HPcK+peYSGgavpr7jFd4zdCOvf7a5f1ajCo60k8HQJ9E6g2wekbm672UxUHJeLj8PDwxWEauU5q09Ft+yqx/adPn8wO15hjxJs10ynka7ToFb4IYYsv7AZ1H134rT8TcdDAAnuK1C5gytYq/Gk5t+ppFtilFnThJP69QxO9kntBnFLfrXs140a1ubMmoqyHsawFwUC7tfj79+97D4+zeh9q+tGzEDzq/jnHKd/DNDkPRyvZwAW51zE1/FzzHlmhLnE4SQ0GDbgSVYBAtwSqTXC6JRZQ8amKg74JSw9fqgNMl3SpZUSMRAvKV+yTk5PZ9l2ZaEi+QE56TnJT9c0dH06iWeT/4dDDglpttMYvHNum13j1N6qXU+TSzBksch3m5q1JjJ97S3bGNmjGjWrvX42PWGxzzch3WZQmv2ZH0W4m/qAZJ59tvdc81mOGRrDO7T9W5eWOAq0ljGnGYGFo7RvyjFoMrHyEciEwdQImL7SpQ9O2TzOJ2y4r50JDW8+Q6zoWCkKaGXWtTJAkWnBse0dU4e6m3JOW2Hq0cJ91HkdE2E0r+yIsOvggoFnk/2ko4mC5nq0RBqQPynha80c+xIyN5zmFmIA8jK3P3Ub7Xu4InYx+Mlp396za/Efr2DDfpak0kcPWUU0B/W2nexWI5B219ZjvW7+rNRGYcxzPawpjIetP63Un4uBYD+XvEGiLQO0JTls0MtcmZHBePdp6kE5tou9rlPXX3dQ6l7hfMzmKrQfbXXeTky/rIiBYRRHOcfu2j3anqQSCFlWIg7EjVNh92gW59YJWU2vNokbKybmtUCOa5HyehkPINZpop+fyWp1/asaNqnXXRAW1PJcMiDQz56xhuc//ree/OeaWlkKxdjxv4eO2dmzKaVPNO8Sqr2q2pT8L9cP9/b3ZwXw1GYS8u7gWAhBfFZvxAAAgAElEQVT4HwHzF++cQU9NHPS9WC0S+PbkM9bilNWkoSfGmrpqJ0GasravWX3xvri4mPV42eEhRJpF/h9zIw7G9I7we7R91TpHlqbm2oVvTt/RiAEltoJp+Piu0USF5uQVW88992nGjarvAk0f6t1HSs0tQ/Kz+XzGepzSClq7/NnaDzTCj9TNUqAMGQM0H19yMtPwsZzna9or/CwjYGszCPEProUABBAHTX1gauKg7yVjve3D1EAJhVtva5WJsWxpOzo6qroISUBU/Fbpb6enp6PbAGMrJjaRXIfHx8eztUlnh5NoFvmIg7EdIvI+zWKlJfFII8TkXPxqxYqc0S2RpnxxmzYirMW6rzVGM25UfQdoBSNL0SHWZ7Tz4lKRw9oPAL72lhAwU+ondbbmqDmIJKfYFut3q/u043mutU1tYUz7PhE+udq8baPaDFJ9hvshMDcCVSc4U4etnQStc2hxMvc8wVhcXV1tmMzyS1PLvmF5IIZEqX3+/Hk4Pz+nb0Y6gWYiEln08jbryXZK3azv7SznqGaRjzho7TRr5WtFjZa2zWrf47m2zWnFAHlX/Pjxo5kPSC4yaPH27VtVigfraKtEl9aMGy28nzX1NFvwxzAO8ZGSkWYagcvX3lIid8rWZ8uDf3r8GKAdX3ON55r5qPW6T+s/ViJuCwxixivugcBcCbQwwZkse+2ionVx0PcylYWJZY6KFp1CJrYSmfbw8GBSPfLb5cNqHdkpkyiJIpzjqdG+bYPWk9tIz1AtnldltxStFtne5m/TLFJyHvCRC4hGPMhZb83WXGlbKwcnyVzn/fv3KmGwg36mGTeqz521EVDiJy2I7SE+YiVS7BoP3Ae/Fx+/NWNHKQEzJPprvd45xyQfD00KhOf7qveX9fprx9ccHzFaEMZC1qIWc7kWGGj6M9dAAAL/I9DUgD01o4QMyKu2WwzMqVw7EgNSm7rz/tjJo6ZCMoEToens7Iz+qAEWcI1MqiUS0+rAEomeFdsdHBzMxna7vrznmEgHmFZzqWaR/6ecDkQLTZubvUY+rrg0CaP1azEyV7s4zyXChM4dxHdlnCud8kDqKePf7e3tqF1XF+RipH5g+IWacaP6eB/jI3J4V+kPWtLvxUdubm7UlijtI9qxab0BJQXMmPpJXXNFv/kMVzoCT+08igu1Eew51mOtCGPajwkWgR+tMFC4BpdAAAKIg7Y+EDp5k9rkeBnlbJVv20DJSVHOtsSUZZ3Hbq5bs2NskXJPwBfu4MfMcSt4J4eTaBb5iIPBHh93g3Zx0qDIvGywJldiznejNrplW7CQrb2vX78e5L/yI/879eOFCAG/fv1alidbmeV/y38fHx+DnCEnn6AHh12sGTeqi4PSpBgfkfeV+Mbh4WFWH5H6yHxJ/iu7SuRfTz6iiQ5ed6PSHzFC6yd1tdxSrP1gbpXHLqxLv7y61HjekjCmabOQyr0uaYlBqt9wPwTmQKCJCc5UQU9BHPRNSCwnHC35gqWgJIskOXCkdKRHS3xL18Va6J3bITIdjA2aRf4fNyRy0LZHahYmLdtAK27mWgzHzB9sLZheei426TXZW4Jm3Ghi7qyN3jLmlbX4WvNLrdi1amxpXw6t33M9zfxUM563/DFAI1gJw9QoVs1zSgWFaCPgn4X+bOsTDYOsg0hiYSKOSiQ+B0ImguT2bgmYvTi6JZKx4jGT+1IvCU0zO4kO0jQl6BqJlpTcglZbUUt/cQ5q/Awutp6ozMW+HUQVaxb5iIMF+rx2G1fqQsyyKdqtfTm38lmPVZa8tsvuaFzUjBvNzJ1DFvwl7R3zrJx9J/T52sM1pFzrXH6+umvHn9W9uaO/1uukHc9LHdgSamu5Xiusp36w0ozhJdd9mry/wiensKthEGNDy3taO/DLsq2UDYFtAs1McKZomp7FQXlxyraTbYGsVALmGv5gfYjF3CLLathQ+0yZaEv+pbu7O+0tQdfNJTK08XykmkU+4mCQZ8ddrFmQ1Fhwh7ZG047nMrPNrSwj2EPbH3u9vPvcQV7ZmMTWQ3mfZtxoqi3aqFZl+6tc1oKPaKLhBE4tEVNbP6mj5YeWgDGpqX6y7djadqSkutAIYyXFwRCROVe9NAyqDDojD63Vz1tkQZ3mRaDpgbt3U/QsDvommx19+Q92HcuDK2TRK0LUxcUF/S3YMrY3WNpdam759d6WjK70xg8n0SzyEQd1pk69atQWPbxftBEzubccxuSWSzVYrvtbEH0C2zLqq6685t7lPQuErfiIlmGtrc/a+uX+QOHpP6N9pAdhRRstmiK0aoSxXCKcdpzTblHP9cFOw0Bb95LX5YyeLFlvngWBVALNTXBSG9TS/b2Kg75653pJtGQfqYt8RZMtxC6qwaRqsiVBcgumJoQ3qRyFLgmIwCXibciJmyHopn5gScPpB0YXMOt2TN0+FOITc7pW+x5Mic4oyVMTvWOx2NMu6EqyGHtWDwJBqPDR8lyox0V4Sx/QtGJRLXFYWz/Ld5k28iz3B5KxsSb275qDXlLGc02fTCk/tt2a99jzGik5956GQWw7CtyHTlIAMo9oiwBOb2gP7aJovQo1XhLbCHxbp1rOHRJrQssX1tQFoVjmLd8nE28RCUNP4NS2SSbsl5eXyRMt7fNKXuebaDawOEAcLOkEO56leQ+2EjmkwaUR6aze49ZjlKb9mmsk4kLGupOTkx7nmHvHDUvhRcN27Brrg7fGnq/9u8yRxEfOzs6a8pEx0aS24D1WP+GfEuk2Zj+NONhTxJUmZ2fKeK5ZZ1jaa5c9tVHwOdZ+GsZjflfj7z35cQ0+PHO6BJp6KU8Ns2ZRtN3mlJdQDn6+F0ZPCzcNA+vJc0tfwjU8uGaTgGbxn8Ksdh9PqXvIRLOBiRXioIWxI8oci86osTiKaMbyFk0ie+soSHlPy2mKVh8yYtlIn5dI/J5TaIz5ag/b358FoiZ9pPU0K2Nbd2t/9BoTm0q8d8dyr+YQlGLHoJj7xgTXFJtrxFTr98UuJpp0FSltXz1X886MsZv1PbU/BFi3j/IhsIsA4qChb/QoDjYaAZTNSmMTv5QHdR4tkdL0yd1rvd18igeWNHg4CeJgIz1T+tPbt2+9J8C3HonlQ7hvgV5S6JRIwu/fvw8/fvyoJhTKWCa2ff/+fa+Rghsm3rd1s+Utxbu6uvQ9SW0iflJLTBZu4h+9+MgusagVYXifOJdDzBl7bYhPiS19/tRjMMG+yLYc4/m+dUdNnxoTLnPa0vqj+5jPhv5dxqz7+3tSQoWC4/pJEEAcNDRjb+Kgb/CeShScTPglomH79OVc5q/5gs/VBsp5ScD6wJIpfZn0TTQrT7AQBxvr1NKfRMiSf/IjY/LV1VWX8xBpi4gukq9WBM7Dw8PlwVO18stKdIYsZlb/fv/+vWQs/z/He0/aKD+vXr1atnX1r1Z7LV1b5m6y5VX8VNitBNCbm5sufXXFat1Hfv36Ncg/Sx95/fr10k+Ojo664ibvMonMXdlfRBIRw1qKiJUPFCL4yvgj71kR6KXOJVmvxnMZY2S8EUa99hFZIwi/9fFc3k+5eAorsdfd3d2yz8l4KuXX3la/60OX+Ly833K1X9osEe9S5oqB5RgeW/ZqrBdfmOK7LZYL982LQFcv7N5M05M46Av7rrywz2Ju68Mm5AUqi4jj42P6UhaLtVeItQ+1mnspxhKNfWBAHIwxIvdAAAIQgAAEIDALAuu5bCUgRETe2qLlLMDTSAg0SgBBw9AwPYmDDW4JTLaMddTXFHPHJUOfcAHW0adTOdm6odQEiIMT7o80DQIQgAAEIAABCEAAAhDIRwBxMB/LFyX1Ig76cuyUSGpshV62hMj2LqvQ9amIOFb8p16ude6U3kVn36FGlcYTxMGpd0baBwEIQAACEIAABCAAAQhkIYA4mAWjv5BexEHf6XxOMOwyufjYSW4p5pbtn5KH4vz8nH6TAnIC90rfFgFa8tNY/PR+YIkvYXqFEwwRBy2ckzIhAAEIQAACEIAABCAAgckRQOQwNGkP4qBPTOvx9EhhLcl9rU7jkzwckluQBLWGHabDoqX/iF/kSPjva36vB934xr4KJ30iDnbYp6gyBCAAAQhAAAIQgAAEIFCeAOKgIfPWxUE5aEFOktsWNty23KwnVBkiXhZtuc1TBA05Xevk5IS+Ym3ITsuXfiTCtNU29l590J3EvHAnF25YtfDpzIiDnfYpqg0BCEAAAhCAAAQgAAEIlCWA4GHIu3Vx0Ld47ylSyfqAiJ5YGLoxRSsJWPtjj7kuKx9Ogjio9F0ugwAEIAABCEAAAhCAAATmTQBx0ND+LYuDjWz7i6bvtvkubm9vo+/fd2Pv+d5MoFComoBPdFffPHKhRBFKrsOLi4suxm45Mdzl6NxolctHKLkaS9QfcTCX41EOBCAAAQhAAAIQgAAEIDBpAiUWaJMGuK9xLYuDjRwYEOwbIjbIoSBWOd56Pyk2GCg3mBCwzoEpApvkOjw+Pm5+DK841iAOmng3hUIAAhCAAAQgAAEIQAACUyPQ/MKyZ+CtioNfv35dnJ2dbaAtGM0TZVLrvG6yZVPElqOjI/pElIW4yUfA8vRseV4PW98rRikjDtItIQABCEAAAhCAAAQgAAEIKAgghCggxV7SqjhYOQ9YME5LgUW2aUokotv6SF8Itgw3aAhYC9s9HFhSKb8p4qDGQbkGAhCAAAQgAAEIQAACEJg9AQQRQxdoURz0nezr8vcNLn9fc74g/CS/mstPZmKlHg94MAFBoUUISMSu+LPVlnjpxxL9enBw0FxfrnQyOuJgEc/mIRCAAAQgAAEIQAACEIBA7wSaW0T2DnS9/q2Jg7JAd8LBBmKJOrq/v29OUPCJmLl8o4dIq1xtpZz2CFgeptNyJKwvAlgE+ru7O6v3EOJge+5PjSAAAQhAAAIQgAAEIACBBglYLcoabGr5KrUmDrqF+MItxDdAtHYAx7dv35bRVY+PjyYGc9sbh5ubG/zehC6FagmUOLDk+vq6uRya7iTwxXbfdhGVg8uBatEnEQe1Dsl1EIAABCAAAQhAAAIQgMCsCVgsyGYNdL3xLYmDIrqdnJxs2MYt1EWEa8YHLCOqpK0ilvRwuisdaD4ELPNpCsXWDiwpfDgJ4uB8uhIthQAEIAABCEAAAhCAAAQSCDQjDCW0odlbWxIHfRE7TjAcnGBY3Qesc7G1Fh3ZrMNSsSoEfv78uYyW3Y7qzVUZEcYlF2ELfV3a5PsIYCRiIg7mciLKgQAEIAABCEAAAhCAAAQmTaC6MDRluq2IgxVyfanMan2K65s3b5bRgkdHR/i5yiJcVJPAly9fFnJytuWBJS0cPFTwcBLEwZoOzbMhAAEIQAACEIAABCAAgW4IIJoYmqoFcbDgQjyIpAiWEs1kIYS0fChDECQuniUBy+31rfSNQh8sEAdn2YNoNAQgAAEIQAACEIAABCAQSgBxMJRYwPUtiIPuAI6FO4Bjo9ZGW/hUZGQL5enp6fDw8KC6PvQiOf1UogXdqcz4dig8rm+GgPXBPNJPRJyvGVVbINUB4mAzHk1FIAABCEAAAhCAAAQgAIGWCSCgGFqntjhYOPn/KEknSi6urq5Gr4u5QCKiROwwOvU0pkrcA4FkApZ9RipXMx9ngUOSEAeTPZACIAABCEAAAhCAAAQgAIE5EEAcNLRybXHQ5dxbbEfoubxmw/n5eVG7CweJFnQnI5vQdtswhxZyqZk0jkJnT8A62rbmSd4ugnGxfRBLRsEScXD2vQcAEIAABCAAAQhAAAIQgICGQFGRSFOhKV1TUxyUE4BdFN0GTjmgw4mFRW1umT+tpqgxJT+lLX0QmOKBJZIT1aUAeGEA9/scqQEQB/twbWoJAQhAAAIQgAAEIAABCFQmUFQoqtzW4o+vKQ66bbaL7cM+XH2G4+PjIjaXLYMSLWhx4IgYsmbexOKOxAMh8ExAxLRPnz5JpKwJkxrb8w0PJ0EcNPESCoUABCAAAQhAAAIQgAAEpkagiFA0NWja9tQSB315ykptvRXxQkTB7a2CWmZj10n0oxw4UvMghbE68ncIWBOwFt9LH+xjdDgJ4qC1I1I+BCAAAQhAAAIQgAAEIDAJAoiDhmasIQ76tulJNND9/X2ObXp7aVlue5Q2SMTUxcUFPmvosxTdF4GpHFjiS4MgaQNcntKU/o442Jc7U1sIQAACEIAABCAAAQhAoBKBlIVXpSr389ga4qBxgn8vfOsDE0pHMfXjYdQUAsMg44wI59uHD+ViUyq3p8HYhTiYywkoBwIQgAAEIAABCEAAAhCYNAHEQUPzlhYHZavhycnJRosyRN/sJeTLF5YLqUQLfv78ufjpyrnqTzkQKElA+uLl5aVZns8PHz4MNzc3Zu8M+cjg0gVsIEuMekYcLOmAPAsCEIAABCAAAQhAAAIQ6JaA2UKvWyIZK15aHDTK2+UlIm2T3IJu219GYv8WVSpHoknlKRQClQhY5/wUsU5yfrqPECbvjsz5UhEHK/khj4UABCAAAQhAAAIQgAAE+iJgssDrC4FdbUuKg4Ynfr4A5CKIFi6CyAScRDpK9JOV+GBSaQqFQGMEej6wJONJ64iDjfkl1YEABCAAAQhAAAIQgAAE2iSAOGhol1LioEQLHR4evthO6LbpZT3V11pwcFFDw9XVFT5p6JMUPS8ClkK+1SFBGQ8nQRycl7vTWghAAAIQgAAEIAABCEAgkgBCTCQ4zW2lxEGfAJBTaBPxUQ48uL291TQ7+Jo3b94sowWPj4/xx2B63ACB/QSsUwBY9N9Mh5MgDtI5IAABCEAAAhCAAAQgAAEIKAggxiggxV5SQhz0PUMiep6enrLY9suXLws5FMSVF4th731uO/RwcXGRpa4mFaRQCEyEgOXhQYIo5weJTIeTIA5OxHdpBgQgAAEIQAACEIAABCBgSwBRxpBvCXHQRe0sHh4eNlrhtuUNZ2dnSbaVxblEC97d3ZkQcpFBy4MNDg4OkuppUjkKhcBECfR0YIkvIjrwxGTEwYn6Mc2CAAQgAAEIQAACEIAABPISQJjJy3OjNGtx0JebS7b4ObEwya6WEUYS1SiRiOfn50l1NDQbRUNg8gRk7BDx3yoiWE4bl1QBqeJ/4uEkiIOdeLJEqH///r352kpuX+k3qX491lCZO/z69WuQf79//x7u7+/Hbgn6+9u3b5fXS3tev36dNTdxUEU8F0vb5cOhtF1+Xr16Nbx//z75g2dqvWLu3/brEv6zzk9sK7ZO/Vgc0/aUe9a5if2lDSXmjPJelHFI+lyNn/V+Ke2eS6qdbXvX6O/y4VTGHRlra9k/t8/JeCM+leOAR8k5L2x+/PixHJOlbLHT0dFRU2u59Xfn6h2ak2vL705ppwT2rPx4NXaKnaznLDkZb783pf4lxv+cbei9rKY6de8wt+tvLQ4mLpxf4LbOTZZLMJian9AeCNQi4PrkwiqXaI4PATJJcJOCDTwBH0AQB2s5VsBzfdHvAbdXudQtlLIsuFaVl4WpiBLyzypafwyURPPLJLzmQsL3wXNV78Co4bHmmv/9r7/+Wjw+Pr54joyLssC2WFS71A4Ld6jbi2fKmCkLRotn5gQpC1tZfPs+WgWM+1FVsjy8K6pCzzdJu4VJLpEnpS65761p7/W27Bt3cre5RnmpY+e+vpFjp1oKk5WoK2NqrXenrG2lf9Z8dwrDXX5s+c5JsZ3v3l3zQfc+Hdz7FM0qN/Ad5QHaELSlOOibBKa8AHZNKnPgkYFJJqY5vl7lqA9lQAAC/xKw/iiQujD1TRacaKj5kog42Lijt7ogH8OWa6IqfU8i6Wstana1U4RCqVfpyCXfB8/1OuYWZcfsHPv3Mb+WxaT7KJN1/i2LZBcdsrPKPSwQxz5WWeWojpmrx/pGyn1iQxEgpG/2FAm0q81j/V3GITc2Zu0nvrqM1SPFZq3cGyviScSgW7vtHVdy5bgPYSVCmKwrW3t3ytguuwtKvzuF3T4/7mEdPqZDpGgcIb7FtcNgPujOGXLMhEMz+fFNAqXjS8h36IRBBv7T01Oz7YU5DymYsy/RdghYE7BMJyB1jx0LEg5dQhy0dprE8ntelDm/jF4AWOf0TTTLn9tlcS7pAUpEnGnmS5r5Ua62p5SjjIbNOv/WjN+5RO0UNiP37h2zrcSiMTHXsL3RRctCuWeRUMvcjZWm449m3Ik2UkM3xn6Q0IwrKe/CUETy7pQ163au/dByrK8vnVdf48etfyDaFW2/slXOw1at7d97+VknJ73DyF1/TWfdfqZm8usGncX21xLNfdvPGvtKm8JDJqHyVafG15OUenMvBOZMwFq0kHFBxIbQKOLIw0kQB9t35iAbtdSc2AWRb6t8S+3y1SVmfhHaJs18yUocCq2r4nqNX2edf2sW8VLvxhnu5Wa1OPTNqRU2buKSEn3ToqHaD0PW0ULafmPBoGSZsf1es06MfReGtr9HWyl3uYSieHG9dl5hnZ4hsSHF35uJ9Z3s7VknJ5OlFNkwzWQ3VBz0hXiHfg2WQUS+OFodRtDrZCXSzNwGgckRsB4jYr5iR+RY1Uw0/tgudvI8OeOXbVCQjcpWbf/TYhZE2miZltq5qov1Il0zX+qoj2r8Ouv8O2Th3PAcrTi3Z8H0xQf3Fvvgrjp11C+WTQjJ8WclCK9YakWVnvzBV9dYH9EI5zHvwlCevDv3EwsZ/2Pm36H2iry+yvgfWddJ35Z1cjJpUhGN00x2Q8VBX9itNg+PbEeWcGyrHA0ltyBFmINbIACBQAKar8aBRf65PPTAEt/kZ2TCq5loIA7GGjDPfUE2yvPIPKW492lQGo+eFzclBELNfCl2gZvH4kGlaPw66/w7ZHEoLdHOG4NanX5xcW5SZY0Akt402xIajwjaaPzY9sFtUrH58jTENeOOppzWr4lN66LpG9biIO/Oce8KHf9LRTSO13zjiirjf2AdZ3F51snJLIgFNDLmpbPvi27E4vhPbUMHjoBmShLUZe4TjhoPoca1EOiDgEQrS4Jl38mbOVoQ8lHBt6jYs3DQTDT+NKEj4SEH9lbKCLJRK5UOXWiFRMq00sZd9bCKOtPMlzrqoxq/zjr/Dp3jxeapNvbP4tymIg5KO3oQCDX9fNvHQndHhfpoqFgZWn4L18cKeLXFwdBxrQXWu+pgKXLHcIr1CUPGVcZ/w/Z0W3TWyUm3FIwqHvMS3DXxlqi/w8PDF1uBx6IXpA6ysLdK3lo66aqRqSgWAhAYITB2klgqQI3oEHg4iWaigTiYari0+4NslPaoPHeHCoO73t15alOnFItDAjTzJcTB3faOWRw2KCZpxoPs6xaNAFKnp4U/teEtg8vGxEaBWQoZvRxyEe4NyxNsl3mez87OovqNpm9Y2Ubs4g7Diml2k/dYfpCJGf+tt+xHGKHK+B9Rz8nfEjVYTJ5KpgZqJrvbj9q1QPa9UMcWKZaL+R6ORc9kRoqBAASeCVhPojUHGfm2Ou8YCzUTDcTBut49aiNZeLTyE3PAVuzWfBHC5IPgq1evhrdv32ZD8OvXr2H17/7+PurDoYVIp5kvWTw3G9jNgkb92l2edf4dszh8FmuGm5ubrHVJYFqcm9RVI4DINjzpj1Y/qz75+/fvQfplSvqfRrcMrtBpbPwCs3XOU3mgzG+Ef+4fTYCGlX/FvLPW26/pG1bioObZPlvJe0LemfLuzNlnW313CoPY8b+xD0SasaGVd1XuYaKp8oBsaA7NZHf78T5xMDBaRnLJmG4DLPGSNjQLRUMAAokEah5YsisSyxPNpJlo/CHRkfCQaL2mbtfYqNt5Smjkg4jjkqIjNsoj1rKy7VmeG5I6IPeCUDNf6qiPFvfr2MWh+IzldrdAnyzOTSsO5vZ3DRfpE9+/fx+ur6+DDhBsMCJo2dzUwz/GdkppmNa4RiNy1fAvDYtadde8D7ZEzEFE2JOTk2LzBZmLSv+UyMya784UcVDuHQs00vhJpmuqjP+Z6j6pYop1oklRUzYmdHB77uDDxcXFhl2csr/Y3ha8azIXG6WgaZImqkdTDtdAAAL9E5CJkUzGbm9vTRqzbzuMMv+qZqLxp+4dCQ8mvCsVqrFRt/OUkC10LUT7hCzec/cXzXwp9zMNfb64X6eIg8LBYqt4BN/i3KSOtQSQED5iXxEhnp6eVLdp0nSoCsp4UWpuvxbbpMHTg3/taketumvXsq3kvA8Zfy0CbEKe77N1IwdUVRn/NX14btd0O+nuwVCaye52O7Zffr5E5r4wYLlOFuraiUMov15fyqHt5HoIQCCMgHWk8q68porDSTQTDcTBMHPnvlpjo57nKZr2tRS5JXVZuMhFlZ1zRvJo5kuIg7vNkro4tD70QeVQw6DpL9nHg1oCiJLJn8skEvn9+/eqKKXWogc1/XuMRyM+OlbNF3/vxb98DatRd/nwfHBwoOLcyEeNZV1D3p3u8qzjWOr4L+PFjx8/BpfjMWu9VEb896Iq439gHWdxeU0nmDzgmJfhtgjnOuxiW/BbDz+XQfT09DQpP8k+Q4gQKVsaKg8Yk/cVGgiB3glY5jgVNttj41i6hdAohcZyr/TuDtr6T3YyqF0otPjhTRtBmDPaUTNfQhy0Ewel5AYOs6gyHtQQQLQDpO8637rAd11D28WjDyLZblcjEU5B5uvNv9YbV6PuNd4/QQbdc7FWpMvdN7XPHVvvu12KNXWhKuN/LttPqZyaTjAljt62aCa72zeuLxR8i+31cOTQbQYhwFsJ1Q6pM9dCAAJ1CVifjr6d2sA3cV2NoZpJrYcW78SyLjTZyaBmS3HLkTAacT2nWKeZL+V8nrGbF/frHItD30cYY07bxRfnJhXQvCtaygmn6SvSrlY+eIVEgo35W0djwJ+m9OZftcVBzZbi3t+duT/E5Br/LbY8j/Xptb9XGf8D6jebS1kIGZo65oW4Wtj67l0dgy6naUm04HYewlxN2bWNL1f5lAMBCLAH+lMAACAASURBVEybgOWHCyG3msDsGmNlu2NkRDXvxLKuOdnJoEZcazFqcGV+beSjuz5Ln9EIHh0JA8X9OtfiUOxfUQgrzq1HcfD5Hbhwp0xrRuss/VPzoF3XaHxTxBI5XVbTppzpDFLapb0XcVBL6n/XaSJjc0fehdVw/9Uaf88tbmqeqW1jzh0B2mc+X1dl/A+s4ywur/7SmAFljbP/wbAv6kVOFJKfq6srE2z7DgAweSCFQgACkyVgnfJAxitJeXB/fy+HOG1wFBFBfu7u7kL58k4MJZZ2veb92KtNRtvWUr6kHWYs1gbEwbSOlHNxuPoQ7fJ+le57o/7mKGWvU4/ijTb4oAURRfOhRLYLv379WlIYjXaEhk5XHa2rXNCjf60aVrruWr+2GAdUxlRcpG1DTpE75/gvTaw0N6ky/itMOrtLsr9kZ0dwvMEaZ/9Tiixqn49jf1Hy85eG8SdGXJE7xDmiCtwCAQhMkIAcWCJRfFaHJcnWqV+/fr0o/zkheyhR3omhxNKu17wfu7OJRuhq7cAAnxld31qM7VDIJT5omBE5uLuz5V4cVtqSWmU8KC2ApA2Z/96t2X5ZW0iT9//JycneJq9HUWnGnB7GzvUG9+pfNYRNzXug0tgU1G01gnjOCG3N+B8yJ67Ux6qM/0GGncnF3U26O7SLxtk3xEFZ6D4+PhZp6nYOryIP5SEQgMDsCFgfWJIJKO/ETCCVxWjej93ZRLMltwehS5M3MdfWaM2isAdmz35f3K81i0MRiuREyjHBd9V3K+SfKs6thgCiHBtHL9Mc3FC7z2gEzPUxRDN2CphcHyVGIWe4AHFQD1EzjvUQzKKxec7tuxpu0s9k/NfuqKkwdlQZ//XeOZ8ru5t0d2gajbNXaVbtL4pVGs1DIQCBagREAJAowlIfPyIayjsxAlrCLZr3Y3c20UzUe3j/lmwH4mBCL3K3amwli8P3798Pb9++VUdyFxZhqowHmoV8ziifNEv/e7fb+rfQbMN1d1QZQ2O3V2pyzvUQPbayVK/+VUM4145jLpVMFZ/W9t3S7Qh5nqZ/rdpZeJ5SZfzX2nRO1zXduSZiCI2zF22qvFQlV5ebVGD/ouR5GAQgIAQ0E5lKpBgTy4LXvB+7s4nGv3NF3FmaS7MlMFd0AeJgmiVDfE4bnSU1ku1lEm1SaL5YZTzoWbxxJhplljO3WYiXanzSN35odxlUyosWgmB5bc/+Vbrummj1nBF3wcZU3qDx/ZxzgJDnBXxUWLZW8oG61AAl5mGjY1mtDx1Ks0/mshLGngysyIZonD2y6LDbZJIn+Qxb/+IS1iquhgAEeiRgfWBJJBPeiZHgIm/TvB+7s0nIRD2SW5HbSgp2JZ9VAF5xvw71Oc0ifMUp98mae/gX59a7eKPJ0Vcr6lGTd80Xmfr/27vb8yxurAHA7oB0EKgAqABcQZYKAhVkXcHGFQQqiKmAUEHiCoIrSOggVOB3jl+86zi2n6MZSfN1c1388nxIt85oRufRaLIzDmd47X1U19E7wTaqkPfs1Lvsvc9X0+rmsTI/wNT6YS3OW9r/Z5YkuK5Pxx+IZun/W8XAmo+7uofuFWJngr15taITitmCM3x9rnndnIAAgfUKxENU/GjR6oMlhTLuiYVgEzfP3B9X1yaZxEvn1zVHNVPPhF3Pc43CKNupe1yXDg6jOpnE0nW1O63z1d1t7cnBpSZTMsmRhz56kKnX19hc/P0hU5e5EriHurXeZe99vkP1H/v33vezMf1/5jnluv6dXuOfpf8f28Zb3m/xneoG8DPB3qyacfP98ccfj05OTrR1M2UHJkBgqkDJg8rUcz2wv36yIe4dh87cH1fXJgY45UHUezBVXsKiPbrH9ZjBYczQevbsWfqHmZqvwd2j2d1t7cnBzAc/5ngNM9MHPrSeWWZJg2i7OepW1BMMG2csJAf/X3XNVjfjovf9bEz/H+Ut+YGow0zdWfr/0ut5D9uv7qF7hY2SCfYm1er0S2+TsjsoAQL7E1jAB0vcE/uGXeb+uLo2McApD6Leg6nyEhbt0T2uxw4OM+63Br1Hx8fHra7J7m5rT0iMbfeiaC7cOPta8KG1EDOvJXd85b1Q4X+br/l+0Lvsvc83ulEP7JjpV+d8rfi6+LH+YMkHqhon42fp/1vFwJqP2+oGv2aT2mXPBHvVc8bN8u3bt70WEK1adgcjQIBAZsDTSMk9sRHsPYfN3B9X1yYGOOVB1HswVV7Coj26x3Wmz7xv5l9m3+vax9sonz59arVETXc3ycGiuE5tnPmgSCYxko3Lpc66u8Za8/2gd9l7ny8V0CM26n0/y1wr9/X/2Vm6NxKKrT5QNUv/P6J5N7/L6h66V9gimWCvVq3Onx2vVm4HIkCAwE2B+EUz1iI8Pz/vCeOe2FM78aXNoTiraxMDnPIg6j2YKi9h0R6Z576qcT1lcBg1y7yeei3QcP2p7m6Sg0Vxndp4SCBfHlpDOLPmanYG4tLfklrz/aB32XufLxXQIzbqfT+b2v9nEvrXDA1n687S/49o3s3vUvXhZPNa4yqYCfZxR76xVzysxWzBhq97TC6jAxAgQKBUIL6qFuumHhpslB73nu3dEytBJg+TuT+urk0McJKtf2Oz3oOp8hIW7dE9rqcODqN2mdc4rxUa/RDd3U1ysCiuD2489UMkt0+QXYv40CvKBwvecIM13w96l733+Vo1e+/7WY3+P2N/7ZWZ+TvCdpb+f0Q5N7/L6h66V9gimWCfVK0Oi0RPKp+dCRAgMFWgZGbLhHO5J07AG7Fr5v64ujbJPGQv/VW4aMueA5ye5xoRp6W7dI/rGoPD0vWnMrO/CuG6u0kOFrbQgc0zfV/Jhw0y/UIUacnjoIzJUu8Hvcve+3x1o/9/R8vEbc0EW43+P0qfmfV7XcsG19ws/X+rGFjzcVf30L1C7Eywj6pWdCxnZ2et1n4ZVSY7ESBAoJVAhw+WuCe2ary7j5u5P66uTQxwyoOo92CqvIRFe3SP61qDw8zMr2uJWH/wt99+q7n+VHc3ycGiuH5w4+xrwEMSuihmMjNaG77qOBlozfeD3mXvfb7JjXvPAXrfz2r1//ED0fPnz9Msw3qFNb9vMEv/n67sjjZc3UP3CtsmE+wrrJYiE9ifQDyAPn78eH8VX1CN//rrr6OLi4tWJXJPbCU7MjkYMypq/4tr+MmTJ83a2gCnvMV6D6bKS1i0R+a5r2r81RocRi2zr3LGtpXXH+zuJjlYFNcPbpyJmzHxEkuLnJycHCxog5msB8+Z2WDN94PeZe99vkz7jdmm9/2sZv+fvd7CpfIHqmbp/8e079b3qfpwsnWskfXLBPvIQ9uNAAECBCoKuCdWxEwcarb7YzzUxgdvTk9Pq7e5AU6i5W9t0nswVV7Coj0ycV017moODr8m/S6zP8JU/CBEdzfJwaK4fnDjzCuJYxN4mWPXfE2znsrR0ZrvB73L3vt8Ndv55rF6389q9/+ZRP91fcck/O9xn6X/bxUDaz5u1YeTNUM0LHsm2Bue3qEJECBAICngnpiEqrTZ7PfHFh9WMMApj47eg6nyEhbtkYnrqn1N7cFhvCL67Nmz9IeghtkmR8Psrql16u4mOVgU1/dunHkdPX6QGT4sNipGssmKJX6YZM33g95l732+OtH/z6P0vp/V7v9LfyAqWUf0AfNZ+v9WMbDm447qpNdc4RnKngn2GYrllAQIECBwS8A9sW9ILOX+WLXdDXDKg6j3YKq8hEV7ZOK6asy1GBxm2uSmSoWPKnR3kxwsiut7Nx5mDx2caTolgZBdC23KOepI/PMoa74f9C577/O1avNM31lzpmuL/n+GD1TN0v+3ioE1H7fqw8maIRqWPRPsxaePtc9+/PHHv61/FgtD+0eAAIEtCsTHlz5//ty6au6JrYX/fvwm98fSKlRIavztlAY4pS3Q98vI5aUr3iMT11X7mhaDw6h15rjXOlNmhn09Rnc3ycHi2P7HDtnE3dR+NpOArBCD00FuHWHN94PeZe99vuqN/fWAW0gORlUyM4JvGpZ+bOiW/yz9f6sYWPNxqz6crBmiYdkzwT769A0+JT66LHYkQIBAbYEOXyi+WlS51fpztT02drym98es1dRB6+3zGOBk5f+3Xe/BVHkJi/bIxHXV5+9MEm/s82Imnq91Jq4/1d1NcrAoru/cOPPKb42vCWcTFWPXNZwucfcRMtdP7XtQrbr0Lnvv89Vyun2c3vezlv3/sPTK5bt371JUE6/zWfr/VMV2tlHVh5Od2aWqGxfs27dv0+u2pA56a6PrWYRv3rzRnmMA7UOAwOIEYs2r169fH52fnzct2xJfQ2pa4WUdPPMw2LzEtQdmBjjlTdZ7MFVewqI9MnFd9Xmt5eAwaj48Z15mZ25PWMezu5vkYFFc37lx5mMhldakjB/yLod1Cx8s9MQE9XSQW0dY8/2gd9l7n696Y389YO/7Wev+PzNr99pywuvSs/T/rWJgzcet+nCyZoiWZY9BbrwC/P79+5aniS9iXb1qfHx8rF2bSjs4AQItBUp+qRxbDv3lWLmq+2UeBque8PbBWryGZoBT3mS9B1PlJSzaIxPXVZ/TWg8Os6+OXiuNnL3V3U1ysCiu/7FxdjbfsGOVeM8+G9T+wWeK0prvB73L3vt8U9r1oX17389a9/9R10xi/tpk5Cz1Wfr/VjGw5uNW6azXDNCz7NFZxKtrFxcXTU8bM2EiSfjkyRPt21TawQkQqCkQA43oIw/NDJhyTjOtp+hV3zfzMFj9pDcP+OHDh6NXr15VvVca4JQ3We/BVHkJi/bIxHXVmOsxOCxIBF0t1RDrYD9//ryknt3dJAeL4vofG2dmlNacnR+TLYaxzcFC1zznwZMd2GDN94PeZe99vqlte9/+ve9nPfr/TJ0mPlvN0v+3ioE1H7fkpr3mei6q7D0GwNbQWlSTKwwBAg8I9PjhRJ+4yBA8+DAYMzxb/Hv8+PFRvLbeYqa9AU55i2UGHhNeVyov0LQ9Dsb1cPiqz989BodBkllf7ppuxOud3d0kB8cHeuaajaPXnsX33XffXX78+DFT8KrXWOaEd22z5vtB77L3Pt/YNj20X+baqHk/69X/D8sDXJ6cnByq/tXf45n706dPJROVZun/U5XZ2UaL6Dh3Zv7f6mYu5qk2MUsm1jysPTNiarnsT4AAgZgFEDMFkw/6o8GGwcRVP2g29WjCVjtu8mHQAKc8XHoPpspLWLRH97jOPE+OfNXrHxUvWX8q+t6hf8+ONbq7SQ4WxfXfNs4kiid+oODOwg2zvS+HMc3Bgtda5/DgiQ5ssOb7Qe+y9z7f1La9b//e97Oe/X9Bcv6o8AeiWfr/VjGw5uNmb9hrruOiy95rcBy/UMTguPAVj0XbKRwBAusVyDzMTK1dPJhEv9didtjUstn/SmCTD4MGOOXR3XswVV7Coj26x3WmP62VHIzn1mfPnqWXfyhI0nR3kxwsiuvbGx9sr1oxd/vEmdeZWyQmx2it+X7Qu+y9zzemPTP79L6f9ez/o/4lPxAVvOJ/sD8ZTi1vlQnAidtAnghYa/foSOIVp+zX4Maet+AiHXsK+xEgQOBegVhWIdZEbdnXxesMkRT0BffFB+ImHwYNcMrjrvdgqryERXt0j+veg8Ps7K1rteSrpd3dJAeL4vq/G2dfLxwSyU1m7GfiPQrbYk3ZUrE13w96l733+UrbMrt97/tZ5nqomaiPD1S9fPky/QNR8gNVs/T/2Tbd03aSgwtr7bjhxsC55YL8MXCOcwzrBmj/hbW/4hDYqkA8LEW/c35+3rSKNR+AmhbUwUNgkw+DBjjlwd17MFVewqI9usd178FhaGTOea2W/Cp4dzfJwaK4/u/GmZl7ha+UjynIwXjpUIaD5V7z/aB32Xuf72Djjdyg9/0s0xfXfjZu8IGqg9fz0BzyFiNjsmQ3yCVaHbf94YcfLt+9e9f0jDHl/uzszCt3TZUdnMC+BeIVtEgKvn//vilELJ0Q/Zl1BZsy1z74Jh8GDXDKw6T3YKq8hEV7dI/rOQaH2cTatVxiAf7ubtk6JGc+FgVJjY3naPfMtRp1az1rL7PmYZSj1ezFbPut+X7Qu+y9z5dtw9LtMtdIoj9Mn3aOfiAKV5KrSLzmP0v/n0be0YaSgwtu7Ji2G4v1t55pY1C94CBQNAIrFogHlni9t+VMaD9yrDhAzBxc9DNYzwFOz3N1uGK6D3LmGhyGZWYW2bX5MJg8Gn74vi/uu7tJDpZfDZmkXMwU/eWXX8oPXrDHb7/9dnR6enpwjwMxd3D/qRusOeHVu+y9zze1be/bv/f9bM7+v2T9wQMzeWfp/1vFwJqPu+gH0zXD1ix7rO0SScKWa3RFeWtPOa5p4FgECKxHoEefZXmE9cTDAyXd5MOgAU55bPYeTJWXsGiP7nE95+AwfsgePnaXBnpgRll3N8nBdLNdbRhvAgyz88t2mnnr5CvtzUq55vtB77L3Pl+rRu99P5uz/w/D4Rq7zE4CeCDXMEv/3yoG1nxcycEVtV6PWTgW8l9RQCgqgYUJ9Jrt7MNKC2v48cXZ5MOgAU55QPQeTJWXsGiP7nE99+Cw0vpT3d3WnhzMvNZX84f/TJwVXSmdNk5+EKFJadZ8P+hd9t7na9Lgw0F7388y12XNfuC2W6a+N/e5Z5mGWfr/VjGw5uNKDq6w9TJT+qdWa5gmfPW1z+PjYzEyFdP+BHYg0KNfiiUQol8aZqnol7YRU5t8GMwMcFqvx1UjPDIP/LXWTep5rho2B47RPa7nHhyGR8k9IJ4xLy4ubvfj3d3Wnhzs3deUvELe4TpLn6JWP5U+4Y0NM2201DUte5e99/nGtGdmn973syX0/5kyXNvFRKRPnz7dXiN8lv4/055728YAa6Ut3uvLn7E+QAzGLfK/0kBRbAKNBXp8YT3WFYx+6NWrV+5Zjduz8+E3+TCYeUhu+St+rTbsOcDpea5aPg8cp3tcLyXmStafumMGeHe3PSQHayWeYrmQ4R7c4fJpc4rhzYZZflhcc8Krd9l7n69NpO1v5uC145AzuPz48WOK9Y4fiGbp/1OF3dlGBlorb/B4lSO+BNpyPcLI8Meah8PCv+Jl5fGi+ARqCcRg/vXr1/qeWqD7PM4mHwaXkqiZGlI9E3Y9zzXVJbF/97heSszF0hIvX75Mf4Rq+HHp6OTk5PrZsrvb2pODQ/kPmtVKipUM/BPXSPdN5lqOZM0Jr95lz8TYnK+IZ4M20x/X/FBO5ny9fpAsmV1865o82JcN/vIQ2SCcsB3kCXhL2rXHeoQxeycSkW/evBE3S2p8ZSHQUSAWJI+kYOuvqMdDQ/Q3Zi13bNz+p9rkw+CSHtSnNGmmHrUG3Jnk4D2vok6pYvV9Cz7YUPU5KtNWvQaHpTPMbiSvZukPeidAagVdz1grOFet6lU/zlwfJllrfM2ROF9SPzYlAHvXo/f5HrIp/YHoRrJ3lv5/Sjtvdd+qDydbRVpLveLmHTP8slN6x9bLul9j5exHYN0CmQeQqTWM/iWSgtY7nSq5iv03+TAYr9oPs6EebIA518DKRkbmeq+ccFp9PGSSnC3afoa2ejCMMh/KuD7AjaTNLO2/1uRN5iMw8aP+8GbR5LFeJr6y/cqc280x62yt8bXU5GDNGXetYjGz/mrNe2fm+qx5vkNumb7pZv//22+/xSv/hw4bf5/cl2VOsvdtIG8wAuLhNJKEw2LPTWtXa8ZA00I6OAECkwXiRh99ypcvXyYf674D+FJ6M9olH3iWZEBrkEyCqNagvWVdMoPaW6+FTi3OwXio9Yrk1ILet/9cieGlDQ6ziYVrx68J00yzVB+3ZOK81rp9mQpmt8kkIGLd8GHCwGSzklcFs+WfY7s5+t21xlf2Gq55bWRmHbf4caV2LGbWXq3ptsT+P9M/Xbt/vS4zzTC5L8ucZO/bQN5wBPQa0FuPcMNBpGq7Fuj1Q0PPXzR33aDLq/zBZNBQ5NU9pxS8grfoug0J+8tDPwjUHOBkBlRzzPwpuWwya2a16O+WODgMt0wMlfi26A/WmrzJ2NZI3mdnAcVr/998801hc9bb/M8//0ytgVyzz8qUfq3xNUdyMPPD2lfzRd87hzIefLap+UPXUvv/zD09cw3d2Gbp7V5YnWVuDnmZ7VK1VJlOY+oJfU10qqD9CSxHoNcSBb6Gvpw2n6kkBx+gWyQDetQ1M3BfcqIrM4Oj9iAtM9Og1kyoVjEwV7tnnvNaJCUPOcb6U8nXxQ4d6vrv1ccta0zeZBN2NRIQGZ+51vO7GTTZWOv91lPGr3fCMnuxzVT2g88Fw/3paPhydvW+IOvy0HbZa7Pms81S+/8YSzx79qzmW0eLbPMacbOkY0BeUms0LEuvjwjEdO+zszMfEWjYlg5NoKVAj48bxQyDt2/fWlewZUOu49gHBwE1H6B7kmRmkC35AxuZRF3t8mcHVcPzzCKfMeYs/1IHh3HNZV61Lrg2q49bZkqAFFT5n5tmktA1XqHNzoLunXC7Dy/TlrFvzz4kUybJwf+1aMZrya8Wz1H+Jff/BbNBM31i9f4/c9K9bQN5Zy0eF2l8aXRYoLhpzdewYGxTAAcnsDKBGNjGh0Ba9g0xuyDOMXyswb1nZfHRqLibTQ5mEyJLnAGRnYFT+z6fTUQsdfZgZl22Ggmbu67FJQ8Oo7yZZHOyj6l+78gM5peUvMn88BCWNa7P7IdlasxQTLb/g5tlE/Q9Z9GuLb5uAs9R9kxfFmVc0jV5bZZNhNV43f9mO2XMesb87Ys0U77k9V+9/0+ed1ebQd5Vc/+vsjFwiUH6ofWEpvBIBEzRsy+BPgLxMBN9wfn5edMT1hioNC2gg88hsNnkYDbRFffJr1/qW8zzWCbJ1Wpwll2jaGmvZGeTX636wczga87BYcRLtm0PdETVr5M5EiBjO9tsnMXxa8yOy8xQrD2DeKzN9X6ZMrdK0t9V9jXF1+3yz1H27I9TS3iV/bZXJvZin9rJ9DX0/9kfNXr3/1P7my3uX/0mu0WkLdcp+6vgFAOvEE7Rsy+BdgIlA42xpbDUwFi5Xey32eRgtF5mYBXbLSVBGAnNf/3rX0cXFxcHg6/V4Do74zIKuJQEYUk/WntQeN1QaxgcxqD/5cuXU3+Urj5uyVync89SKrk2IyZqzK7NzsJbynV4fS1kxzW9Zm2vIb7u6/DnKnv2B6oYX8ZSVsO6ptX7hYM3wRsbRN8W987Mmzctkulr6P+DK9uuD9jP2s4lMbHmbSGvufUqlT06tfjicOuZQz4+UKnBHIbARIEe6wpG8iAe2o6Pj91nJrbXhnffdHIwO7i+Mag9invxkydPul8zpX1Cy1lo2dkXXxOwV0sVzNHPlC7F0HKdrLUMDgs+dHNft1f92pgrAZLp1+P5PNbnff/+fWbz/25TIwmdcVni7K3srO2W1+PNxso4zp18XlpysOTeGTEY983T09PqfUPmosv0vTeP0yKZnilDy3t2xim2qfAD0SxtnK3fVraDvJWWrFCPeGiLDjbzy8eU0y2hg5pSfvsSWKtAj2t87ge1tbbNTsu96eRgtOmYX8pj0BozrOL/N998U31WRAye//zzz6vXmT99+nT08ePHovBrnRDIDHRuFzh+jIiZG9dmLZKFsQTDtdsvv/xSPAOuZQIgY7aUZ6/szK57grL6uGUpyZvr6zKuyfgf1+eY5/Ear65nE2xL+RDJ7VjJvsJY49XrQ53nUuLrUDnv+vucZR9z74xJKPF13LgPPH78uPoPbTfvnXF9lk6qaTXjfk39f0ni946YrN7/j7kutr4P5K238Ij6lc4gGHGKq9eo4tfQN2/eiMExgPYhUCDQa3bwUgcKBVQ27Suw+eRgdoHyvuzTzlZ7MfW7SlMye3BabfrsXeM1z4dKuqbBYdQjk3RYUnKwT5RMP0ut5EM2gVtjhuL0Wv/zCNkZqjUSqYfKn4n1lj8cHCrfQ3+fs+zZNpxSv977tnqVfW39f8lSHLfaSM6gQ9BC7oC81lNMuHjTVY4ZEnO9EpQupA0JrFgg+5A/pYpxHUeyf+51X6bUwb6zCGw+ORiqPa7BXq3X61W8LQ0MW8+0jLZf2+AwyjwyAVx93JJJgPS6vqacp+bapZm2abF22pT63943M/Osx7WZiS/JwbtbPjsDtGbctDpWyx+I1tj/j/xAVfX+v1V7r/m4kNfceh3K3utLpjHjKJKEc6y11IHRKQh0F+jxRfKYpRDXrRnA3Zt3KyfcRXIwGmvkg/Ci2rnWrKRspbaSVO0x8F/j4HDkrNrq45ZM8iYbs3NuV2sts+xrf7XO18osc03EuVvXIxNfPfqIMc5LKPsW7p2tE+mZWF/KshLXcRivaMcr4F++fCkJzer9f8nJ97It5L209MR6li68PeZ01iobo2YfAn8XiAHX69evR61VlLV0rWalbHdAYDfJwbUnCGvOSiq5Knq8wVBSntJtWycersuzxsFhlL3k69Rf61p93JJJgJS2e8/t49qMNTBrrbOZueZ6zLirZHjwHtN6OZRMfEkOPtzaa04Qtk4Mhtxa+/8RbwhU7/8r9TObOgzkTTVn+8pkOqCppYjZCfGK4qtXr8TnVEz770YgfoWLpGDpAsmlQGb5lorZ/gGBgwO3Yd9N3QfW+JpUj8HNQ1dJj+eO2ldp7YTNofJljJY2c+S6ToXXRPX+IJO8OeQ/19/j2jw7O6u6pEcmEdM6oVbLM5PobN2/ZeJLcvBwi2fi8vBR+m7RaxmONff/mbLfaLXq/X/fiFjH2SCvo50WVcpIQsRXjUu/cFhaCeuYlYrZfq8ChTfXUUzxAB1J+1qzE0YVwk5bE9hdcjAasMcr/7UCZSkJpR4zomuZxbNLJGx6LpOSuQf0+JDMWMPMwL/VQLswOTm2ilX3azl7P7NW31I/RHIbOfPq+hKSgz2+mjwmADNLO/RMbGb6uTH1rL1Py+vzrrJmrr8gcwAAGh5JREFUZuAt5V5+V/kzCfSv+8lb1Q7WO44HuQPyVk8RN91IEl5cXDSt4lp+oWyK4OAE7hCI1/3jGixcs6PI0pfFi7hsXCBwaFDecgHvgmI22zRmtcTrgC2v37GFX+oM4R5LnIw1m/MDa5nB4ZITOkPZLl++fPngtdDqWXDEq81jQ2TyfvFmTbwhcHp62mz8dmi2Xetk2mSkWwc4lOxsFVfXxTjk2Xst1xLfzLXRu1+JCSqx1vX79+9LqtJt2znunWEy/Bj1YB17LXExFvrQD0Rr63fGOixhv2Y3lyVUThn6CPRKUMTN4OTkRMz2aVZnWbBAr8T8kn9pXHDzKFpS4NCsjp4zEpJFbrJZ3ENjplnrJQEOFT4eviPx8K9//avrrLdD5brr75EMi8Tq3MnVGNiHV7jN/bX2hwZXa0i0P5QgjB+pPn361CwuDyWQxsRorX0ixiJxGnHWa7mdh2Jpbf3yQ/eZHgmHQx9eWHrS5qEvV7eazZu9diJ5GffO1pNUDpXn+t455xj1oVmePeL8kFHm71vqdzL1Xeo2Ei1LbZkVlisz/XxqteIhKW4EXm2cKmn/NQr0fKW/92txa2wPZZ4ucFeie8+vsIfHb7/9dpUI+euvv5olDGNQF/8i6RBfDOyVdJgeMf88QpiFV/z/888/r/5//vy5+qkiLr/55psrr/gfdj1fHc5U6PZs1N6vt2XK+NA2kSCM5SviGrhuw15LzByayTy1bpn9b16Xjx8/njXG4hXOaIfrHy3WvB54/JgQb1lcx1Rcy5FsbTkD82Z7R1zHDwg3k1hr8Yyyh93NH6+iXwm/YfbeYvII0cbX94HW986b94El3Tvjmo3+8+bbCK1nxmb6tZJtIpcQP/rdvFZjctCSnEvqs8ZtF3NRrxFPmf8p0OujCHOs6aO9CcwpcNdNv3Z5JN9rizoeAQIECBAgQIAAAQIEli8gObj8NlplCXstHj78wnD07t07cbzKKFHojECPNbbiV2Cv7WdawzYECBAgQIAAAQIECBDYnoCkyvbadFE16vFVRh9MWFSTK0wlgUiwR8Ku9TpkEuyVGsxhCBAgQIAAAQIECBAgsFIBycGVNtzain3oa1016rPndapq+DnGcgR6XC+91nFajqqSECBAgAABAgQIECBAgMBdApKD4qKbwF2L2rY4eXyVLxZkXdpC4S3q6pjbEui1rmBcHxb33VbsqA0BAgQIECBAgAABAgTGCkgOjpWz32iB218NG32gB3Zc2xf6Whg45noEXBPraSslJUCAAAECBAgQIECAwNYEJAe31qIrqk+vWVKxbtubN2/E+opiYy9F7TWbdnhN+ej9+/eugb0ElnoSIECAAAECBAgQIECgQMBgsQDLpvUF/vjjj6uPLgyJi/oHv3HEWF8tznN8fCzmm0o7eFZg+BDI5fCl7ezmo7YT96PY7ESAAAECBAgQIECAAIFdCUiU7Kq5l1vZXl9mNYNquTGwl5L1+IL3t99+e5UMN2N2L1GlngQIECBAgAABAgQIEBgvIDk43s6eDQR+/vnnq5mEnz9/bnD0/z+k9Qib0TrwAwKRAH/9+nXT2I7TD6/rH52enurbRSMBAgQIECBAgAABAgQIpAQMIFNMNuotEOsRDgmOpqeN2VW+2tqU2MEHgXh1PpKC5+fnTT18pbspr4MTIECAAAECBAgQIEBgswKSg5tt2vVXLJIq//73v48+fvzYtDKxLlskCZ8/f+56aCq9v4P3SHI/ffr0Kn6tp7m/+FJjAgQIECBAgAABAgQI1BCQDKmh6BhNBeJ1zEgSXlxcND3P8IGIo+EDEa6Jpsr7OHi8Hh8x++XLl2YVjtfjIyloXcFmxA5MgAABAgQIECBAgACBXQhIhOyimbdRyV4Jl1jz8OTkxLWxjbDpWguJ7K7cTkaAAAECBAgQIECAAAECFQQkQCogOkRfgWGG3+Uww6/pSWM9wrOzM69qNlXezsF7vgIfcfnkyRN993bCR00IECBAgAABAgQIECAwq4AB5qz8Tj5WwEcexsrZr7ZArCsYr/e2fIVYsrp2qzkeAQIECBAgQIAAAQIECFwLSA6KhVULxGuc8SXYz58/N63HkAA6Gr6e7Hppqryug8dr7vEKesvYi3UFY+1Csbeu2FBaAgQIECBAgAABAgQIrElAsmNNraWs9wr0mL3lAxACMAQiIR1JwfPz86Yg33///dH79+/10U2VHZwAAQIECBAgQIAAAQIEDDzFwKYEhoTK5ZBQaVqnp0+fXn0l9vj42PXTVHp5B+8RXy9evLiKr+fPn4uv5YWAEhEgQIAAAQIECBAgQGBzAgafm2tSFfr9998v41XMHjO7YgaZj0NsP+Z6zEyNdQUjKfjq1Sv98vZDSg0JECBAgAABAgQIECCwGAGD0MU0hYLUFvjw4cNVktCacLVl93M8MbSftlZTAgQIECBAgAABAgQI7FVAcnCvLb+jepv1taPGrlRVs08rQToMAQIECBAgQIAAAQIECCxeQHJw8U2kgDUE/vjjj6uPSLRej9B6cTVaa95j/PDDD5fv3r1rWoiIk4hH61Y2ZXZwAgQIECBAgAABAgQIEEgISA4mkGyyHQFfmt1OW9auyU8//XSVQP7y5UvtQ//3eL543YzWgQkQIECAAAECBAgQIEBgpIDk4Eg4u61b4Oeff75aj7B1IijOcXp66jpbcLhEwvj169dN16aM6g+vt4uFBceBohEgQIAAAQIECBAgQGCvApIWe2159b4SiPUIh+RdU434Cu3Z2ZlXSJsqlx88XjWPpGDrr1p/9913V18h9lXr8jayBwECBAgQIECAAAECBAi0F5AcbG/sDAsXiCRRzPD7+PFj05LGOnORJJQkasqcOrikcIrJRgQIECBAgAABAgQIECCwAwHJwR00sirmBOL10kgSXlxc5HYYudXwwYuj4YMXrr2RflN26/U6eaxdeHJyoo2nNJZ9CRAgQIAAAQIECBAgQKCLgMFrF2YnWZNArw9TSCD1iwqJ337WzkSAAAECBAgQIECAAAEC6xKQHFxXeyltR4Fhht/lMMOv6RmfPn16tR7d8fGxa7GBtFfGG6A6JAECBAgQIECAAAECBAhsSkBCYlPNqTK1BXy0orZov+PFuoKReG35Rer42Eyc49WrV/rSfk3rTAQIECBAgAABAgQIECBQUcCAtiKmQ21XIF5LjS/bfv78uWklh4TW0fD1ZNflBOVYVzBe2W7ZVo8ePTqK9Sm11YSGsisBAgQIECBAgAABAgQILEJAEmIRzaAQaxHoNRstkltv3rxxfRYExu+//371QZnz8/OCvco3/f7774/ev3+vbcrp7EGAAAECBAgQIECAAAECCxQwwF1goyjS8gWGBNHlkCBqWtAXL14cRZLQeoSHmXu1R7xC/Pz5c/3m4SaxBQECBAgQIECAAAECBAisRMAgdyUNpZjLE+g5Uy2ShE+ePHG93goDMzmXd10oEQECBAgQIECAAAECBAisS0CyYV3tpbQLFPjw4cPV66zWuOvXOMz7WTsTAQIECBAgQIAAAQIECGxbQHJw2+2rdh0Fes1i2/PXcX09umNAOxUBAgQIECBAgAABAgQI7EJAcnAXzaySvQQieRWvAPdYj3Bv69/98MMPl+/evWvalE+fPj0KV+s8NmV2cAIECBAgQIAAAQIECBBYkIDk4IIaQ1G2I/Drr79evWp8cXHRtFJDwuxoSJht+jr+6aefrhKuX758aWb56NGjq6SgL0Q3I3ZgAgQIECBAgAABAgQIEFiowKaTCgs1V6wdCfz8889XScLWia1Inp2cnGzqeo4E6+vXr5uu5RihOLwOfnR6eropux1dYqpKgAABAgQIECBAgAABAhMFDIgnAtqdQEYg1iMcElCZTUdv8+233x6dnZ2t/pXYeDU7EqofP34cbZHZ8cWLF1devgKd0bINAQIECBAgQIAAAQIECGxVQHJwqy2rXosTkPQ63CSSqIeNbEGAAAECBAgQIECAAAECBGoKSA7W1HQsAgkBr8v+E8nr14nAsQkBAgQIECBAgAABAgQIEGggIDnYANUhCWQEfGjj6KjXh1u+//77+IK0/i4TmLYhQIAAAQIECBAgQIAAgV0JGCzvqrlVdokCwxeHL4cvDjct2tOnT6++xnt8fLyIaz5esY6PqAwJu6b1jnUFo97Pnz9fRL2bVtbBCRAgQIAAAQIECBAgQIDACAED5hFodiFQWyCSZfFl3vPz89qH/tvxvvvuu6tk2Zwf4Yh1BaMMLb/gHB9niXO8evVKH9c0ohycAAECBAgQIECAAAECBNYuYOC89hZU/k0JfPjw4epLvZ8/f25Wr0ePHh3FOYavJ3e9/mNdwZgtuMW6NWssByZAgAABAgQIECBAgAABAo0FuiYHGtfF4QlsRqDX7LpI1r1586ZpP/D7779fJTxbz4qMdQWjPnPOitxMAKoIAQIECBAgQIAAAQIECOxGoGlSYDeKKkqgkcCQ8Lpc87p8vcofScGlrKfYKBQclgABAgQIECBAgAABAgQINBGQHGzC6qAE6gn0nHlX64u+W5r5WK8lHYkAAQIECBAgQIAAAQIECCxPQHJweW2iRATuFFjDmn091kwMnCH52H3NRGFJgAABAgQIECBAgAABAgS2KCA5uMVWVadNC/SalVfytd89fW1508GlcgQIECBAgAABAgQIECCwOwHJwd01uQpvQSCScbHOXo/1CM/Ozh78yMcPP/xw+e7du6asT58+PYpkpXUFmzI7OAECBAgQIECAAAECBAjsUEBycIeNrsrbEfj111+vvgR8cXHRtFJDAvBoSAD+rb/46aefrhKUX758aXbuR48eXX2B+OTkRF/VTNmBCRAgQIAAAQIECBAgQGDPAgbce259dd+MQKxHGEnCHom6Z8+eHb1+/fro8+fPTf3uSkg2PaGDEyBAgAABAgQIECBAgACBHQpIDu6w0VV5uwKxHuHp6emqK/jixYujQ68yr7qCCk+AAAECBAgQIECAAAECBBYkIDm4oMZQFAI1BGI9wphF+PHjxxqH63aMb7/99iopaF3BbuRORIAAAQIECBAgQIAAAQIEjiQHBQGBjQrEeoQ9Xv+dyhfrCkYyc5jxqD+aiml/AgQIECBAgAABAgQIECBQKGAwXghmcwJrE+jx4ZCxJt9//318cVk/NBbQfgQIECBAgAABAgQIECBAYKKAQflEQLsTWIvA8IGPy+GLw4sobqwr+Pbt26Pnz5/rgxbRIgpBgAABAgQIECBAgAABAnsVMDDfa8ur9y4FYj3CeNX4/Px8lvrHuoI//vjj0Zs3b/Q9s7SAkxIgQIAAAQIECBAgQIAAgb8LGKCLCAI7FPjw4cPVR0s+f/7cpfbWFezC7CQECBAgQIAAAQIECBAgQKBYQHKwmMwOBLYj8J///OcyXu/98uVLs0rFuoIxW/DJkyf6m2bKDkyAAAECBAgQIECAAAECBMYJGKyPc7MXgU0JDAm8y+HDIFXr9PTp06t1BY+Pj/UzVWUdjAABAgQIECBAgAABAgQI1BMwaK9n6UgEVi3w66+/XsYMv6nrEcYrxJEUtK7gqsNB4QkQIECAAAECBAgQIEBgJwKSgztpaNUkkBX4+eefr5KEY9YjHF5TPjo9PdWvZLFtR4AAAQIECBAgQIAAAQIEZhYwiJ+5AZyewFIFStYj/O67765mC1pXcKmtqVwECBAgQIAAAQIECBAgQOBuAclBkUGAwL0Cf/zxx9VXjT9+/HjnNt9+++3R2dmZdQXFEAECBAgQIECAAAECBAgQWKmA5OBKG06xCfQUiPUII0l4cXFxddpYVzBePT45OdGH9GwI5yJAgAABAgQIECBAgAABApUFDOwrgzocgS0LxHqEnz59Onr37p2+Y8sNrW4ECBAgQIAAAQIECBAgsBsBA/zdNLWKEiBAgAABAgQIECBAgAABAgQIEPi7gOSgiCBAgAABAgQIECBAgAABAgQIECCwUwHJwZ02vGoTIECAAAECBAgQIECAAAECBAgQkBwUAwQIECBAgAABAgQIECBAgAABAgR2KiA5uNOGV20CBAgQIECAAAECBAgQIECAAAECkoNigAABAgQIECBAgAABAgQIECBAgMBOBSQHd9rwqk2AAAECBAgQIECAAAECBAgQIEBAclAMECBAgAABAgQIECBAgAABAgQIENipgOTgThtetQkQIECAAAECBAgQIECAAAECBAhIDooBAgQIECBAgAABAgQIECBAgAABAjsVkBzcacOrNgECBAgQIECAAAECBAgQIECAAAHJQTFAgAABAgQIECBAgAABAgQIECBAYKcCkoM7bXjVJkCAAAECBAgQIECAAAECBAgQICA5KAYIECBAgAABAgQIECBAgAABAgQI7FRAcnCnDa/aBAgQIECAAAECBAgQIECAAAECBCQHxQABAgQIECBAgAABAgQIECBAgACBnQpIDu604VWbAAECBAgQIECAAAECBAgQIECAgOSgGCBAgAABAgQIECBAgAABAgQIECCwUwHJwZ02vGoTIECAAAECBAgQIECAAAECBAgQkBwUAwQIECBAgAABAgQIECBAgAABAgR2KiA5uNOGV20CBAgQIECAAAECBAgQIECAAAECkoNigAABAgQIECBAgAABAgQIECBAgMBOBSQHd9rwqk2AAAECBAgQIECAAAECBAgQIEBAclAMECBAgAABAgQIECBAgAABAgQIENipgOTgThtetQkQIECAAAECBAgQIECAAAECBAhIDooBAgQIECBAgAABAgQIECBAgAABAjsVkBzcacOrNgECBAgQIECAAAECBAgQIECAAAHJQTFAgAABAgQIECBAgAABAgQIECBAYKcCkoM7bXjVJkCAAAECBAgQIECAAAECBAgQICA5KAYIECBAgAABAgQIECBAgAABAgQI7FRAcnCnDa/aBAgQIECAAAECBAgQIECAAAECBCQHxQABAgQIECBAgAABAgQIECBAgACBnQpIDu604VWbAAECBAgQIECAAAECBAgQIECAgOSgGCBAgAABAgQIECBAgAABAgQIECCwUwHJwZ02vGoTIECAAAECBAgQIECAAAECBAgQkBwUAwQIECBAgAABAgQIECBAgAABAgR2KiA5uNOGV20CBAgQIECAAAECBAgQIECAAAECkoNigAABAgQIECBAgAABAgQIECBAgMBOBSQHd9rwqk2AAAECBAgQIECAAAECBAgQIEBAclAMECBAgAABAgQIECBAgAABAgQIENipgOTgThtetQkQIECAAAECBAgQIECAAAECBAhIDooBAgQIECBAgAABAgQIECBAgAABAjsVkBzcacOrNgECBAgQIECAAAECBAgQIECAAAHJQTFAgAABAgQIECBAgAABAgQIECBAYKcCkoM7bXjVJkCAAAECBAgQIECAAAECBAgQICA5KAYIECBAgAABAgQIECBAgAABAgQI7FRAcnCnDa/aBAgQIECAAAECBAgQIECAAAECBCQHxQABAgQIECBAgAABAgQIECBAgACBnQpIDu604VWbAAECBAgQIECAAAECBAgQIECAgOSgGCBAgAABAgQIECBAgAABAgQIECCwUwHJwZ02vGoTIECAAAECBAgQIECAAAECBAgQkBwUAwQIECBAgAABAgQIECBAgAABAgR2KiA5uNOGV20CBAgQIECAAAECBAgQIECAAAECkoNigAABAgQIECBAgAABAgQIECBAgMBOBSQHd9rwqk2AAAECBAgQIECAAAECBAgQIEBAclAMECBAgAABAgQIECBAgAABAgQIENipgOTgThtetQkQIECAAAECBAgQIECAAAECBAhIDooBAgQIECBAgAABAgQIECBAgAABAjsVkBzcacOrNgECBAgQIECAAAECBAgQIECAAAHJQTFAgAABAgQIECBAgAABAgQIECBAYKcCkoM7bXjVJkCAAAECBAgQIECAAAECBAgQICA5KAYIECBAgAABAgQIECBAgAABAgQI7FRAcnCnDa/aBAgQIECAAAECBAgQIECAAAECBCQHxQABAgQIECBAgAABAgQIECBAgACBnQpIDu604VWbAAECBAgQIECAAAECBAgQIECAgOSgGCBAgAABAgQIECBAgAABAgQIECCwUwHJwZ02vGoTIECAAAECBAgQIECAAAECBAgQkBwUAwQIECBAgAABAgQIECBAgAABAgR2KiA5uNOGV20CBAgQIECAAAECBAgQIECAAAECkoNigAABAgQIECBAgAABAgQIECBAgMBOBSQHd9rwqk2AAAECBAgQIECAAAECBAgQIEBAclAMECBAgAABAgQIECBAgAABAgQIENipgOTgThtetQkQIECAAAECBAgQIECAAAECBAhIDooBAgQIECBAgAABAgQIECBAgAABAjsVkBzcacOrNgECBAgQIECAAAECBAgQIECAAAHJQTFAgAABAgQIECBAgAABAgQIECBAYKcCkoM7bXjVJkCAAAECBAgQIECAAAECBAgQICA5KAYIECBAgAABAgQIECBAgAABAgQI7FRAcnCnDa/aBAgQIECAAAECBAgQIECAAAECBCQHxQABAgQIECBAgAABAgQIECBAgACBnQpIDu604VWbAAECBAgQIECAAAECBAgQIECAgOSgGCBAgAABAgQIECBAgAABAgQIECCwUwHJwZ02vGoTIECAAAECBAgQIECAAAECBAgQkBwUAwQIECBAgAABAgQIECBAgAABAgR2KiA5uNOGV20CBAgQIECAAAECBAgQIECAAAECkoNigAABAgQIECBAgAABAgQIECBAgMBOBSQHd9rwqk2AAAECBAgQIECAAAECBAgQIEBAclAMECBAgAABAgQIECBAgAABAgQIENipgOTgThtetQkQIECAAAECBAgQIECAAAECBAj8HwFhvW5OhB/pAAAAAElFTkSuQmCC;fontSize=30;" vertex="1" parent="1">
          <mxGeometry x="970" y="-210" width="280.25" height="130" as="geometry" />
        </mxCell>
        <mxCell id="dLBkJMeFhAHbQDATNgt3-4" value="" style="shape=image;verticalLabelPosition=bottom;labelBackgroundColor=default;verticalAlign=top;aspect=fixed;imageAspect=0;image=data:image/png,iVBORw0KGgoAAAANSUhEUgAAAGQAAABkCAYAAABw4pVUAAAACXBIWXMAAAsTAAALEwEAmpwYAAADKUlEQVR4nO2dPWgUQRiGXwOihTaKPygWEcQmkDRaaGMh+NNqq41W/mC6WKTVQlsbBbFQVBRy/jQWip02aRXFwoCiEU2IQqJgzMnABoaPvZvZu7ndN3vvAwspvm929n1u5m7vwh0ghBBCCCGEEJwMAngE4BeApg4UycBl1sgyTMJOAHOSgG4fiHOppDyVDKTaFR6nEKJtCsmE/EwhZNEb0P0tKs5PQrpDQsiQEDIkhAwJIUNCyJAQMiSEDAkhQ0LIkBAyJIQMCSFDQsiQEDIkhAwJIUNCyJAQMiSEDAkhQ0LIkBAyJIQMCSFDQsiQEDIkhAwJIUNCyJAQMiSEDAkhQ0LIkBAyJIQMCSFDQsiQEDIkhAwJIUNCyJAQMiSEDAkhQ0LIkBAyJIQMCam7kBl95yJSfcXf9xRCHkoIUgl5kELIMwlBKiEuy67YZPbAv5KDohL8zBazTDvmtBn8RKC+YepHUT9GzTVOBOpPmvpTqb5E2Zne2KZ2AMAPc/IR1I8Rc40z2bW3YoNZJU86PfE6AL+9gZ4nnuhKZSDngTcc6Hnh1f4BsL6TEx83Jz1XcCm77auuNMy1XgjUnzf1xzo56R1vgCUAOwpOsp+OiUA227MMl+tvF5WxGsCsN8BkRM80QTDNig537SEmvfrZLONoDpoTjkf0TBEE06zo+BiRz7jpcRlHc800D0X0HO5TKVMADkXkM2T6XMZRrALwyWv8ENsogrz3cv2cZR1krzF5JaZJRHHVZLsnpumyadqH6jmQYGtxY1TNfjOnSzFNb82rB4abu5cJhLgxqsZl+dWb05tQwy5zEddRj9XRJFolN8ycdrcrvmiKj6Aeq6NJtEqOmjmNtSt+7RW6HwNbW948+4Y12Y+DLef8qlXhVgD/vMJ75c6zr7jv5ewy35ZXdNYspYXsFl8HkmewYLI+E7pp0YFSM3iXJ2ReIlDVA3E+JMS9VaytCj3NYKmIkNwCkZRg3hJSLhJChoSsNCH+m156UkepT+pf8oTc0steVPWy92aekC0AvkkKypbhVsfmVvvaIIC72ecgug9BTzOYzv4dyC0EIYQQQgiBXvIfQ/z53b47cpQAAAAASUVORK5CYII=;fontSize=30;" vertex="1" parent="1">
          <mxGeometry x="-430" y="320" width="100" height="100" as="geometry" />
        </mxCell>
      </root>
    </mxGraphModel>
  </diagram>
</mxfile>
